<?xml version="1.0" encoding="UTF-8"?>
<!DOCTYPE svg PUBLIC "-//W3C//DTD SVG 1.1//EN"
    "http://www.w3.org/Graphics/SVG/1.1/DTD/svg11.dtd"><svg xmlns="http://www.w3.org/2000/svg" height="400.0000" stroke-opacity="1" viewBox="0 0 400 400" font-size="1" width="400.0000" xmlns:xlink="http://www.w3.org/1999/xlink" stroke="rgb(0,0,0)" version="1.1"><defs></defs><g stroke-linejoin="miter" stroke-opacity="1.0" fill-opacity="0.0" stroke="rgb(0,0,0)" stroke-width="1.5999920638244647" fill="rgb(0,0,0)" stroke-linecap="butt" stroke-miterlimit="10.0"><path d="M 399.9980,200.0021 l -3.3477,-27.5591 l -9.4346,-25.0319 l -13.8430,-20.5541 l -15.9076,-15.1381 l -15.5264,-9.9850 l -13.1817,-6.1921 l -9.8183,-4.4856 l -6.6083,-5.0446 l -4.6606,-7.4604 l -4.7463,-10.8383 l -7.1071,-14.0205 l -11.3932,-15.8726 l -16.7466,-15.5645 l -22.0099,-12.7781 l -26.0073,-7.7886 l -27.8319,-1.4013 l -27.0669,5.2411 l -23.8873,10.9347 l -19.0170,14.7043 l -13.5526,16.0382 l -8.6954,15.0097 l -5.4588,12.2545 l -4.4220,8.8119 l -5.5903,5.8661 l -8.3963,4.4535 l -11.8414,5.2051 l -14.7439,8.1897 l -16.0311,12.8943 l -15.0060,18.3476 l -11.5217,23.3560 l -6.0211,26.7941 l 0.5672,27.8799 l 7.0521,26.3651 l 12.2676,22.5959 l 15.3539,17.4285 l 15.9636,12.0202 l 14.3430,7.5469 l 11.2677,4.9169 l 7.8488,4.5503 l 5.2574,6.2786 l 4.4347,9.3880 l 5.8582,12.7975 l 9.4221,15.3269 l 14.4609,15.9887 l 19.9102,14.2338 l 24.5658,10.0901 l 27.3767,4.1591 l 27.7021,-2.5267 l 25.4676,-8.7528 l 21.1833,-13.4155 l 15.8194,-15.7883 l 10.5693,-15.6952 l 6.5588,-13.5500 l 4.5720,-10.2511 l 4.8610,-6.9578 l 7.0871,-4.8027 l 10.4059,-4.6115 l 13.6773,-6.6976 l 15.7477,-10.7829 l 15.7363,-16.0634 l 13.2541,-21.4041 l 8.5032,-25.6155 l 2.2315,-27.7435 l -4.4463,-27.3020 l -10.3176,-24.3922 l -14.3644,-19.6771 l -16.0084,-14.2204 l -15.2485,-9.2265 l -12.6568,-5.7470 l -9.2352,-4.4251 l -6.1660,-5.3402 l -4.5189,-7.9908 l -4.9864,-11.4199 l -7.7110,-14.4528 l -12.2479,-15.9877 l -17.6714,-15.2692 l -22.8001,-12.0771 l -26.4844,-6.7841 l -27.8872,-0.2686 l -26.6876,6.2957 l -23.1601,11.7238 l -18.1067,15.1045 l -12.6619,16.0197 l -8.0155,14.6427 l -5.1229,11.6917 l -4.4730,8.2502 l -5.9706,5.4980 l -8.9623,4.4191 l -12.3996,5.5578 l -15.0982,8.8823 l -16.0319,13.7902 l -14.5872,19.2540 l -10.7176,24.0708 l -4.9588,27.1553 l 1.6985,27.8050 l 8.0465,25.8712 l 12.9521,21.7957 l 15.6303,16.5026 l 15.8318,11.1731 l 13.9002,6.9573 l 10.6841,4.6941 l 7.3252,4.7077 l 4.9756,6.7310 l 4.5123,9.9728 l 6.3194,13.3152 l 10.1914,15.5903 l 15.3811,15.8694 l 20.7807,13.6945 l 25.1912,9.1939 l 27.6148,3.0554 l 27.4985,-3.6388 l 24.8688,-9.6719 l 20.3257,-13.9869 l 14.8955,-15.9410 l 9.7814,-15.4586 l 6.0690,-13.0462 l 4.4633,-9.6642 l 5.1174,-6.4881 l 7.5975,-4.6175 l 10.9921,-4.8032 l 14.1382,-7.2608 l 15.9090,-11.6153 l 15.4937,-16.9905 l 12.5997,-22.2216 l 7.5279,-26.1391 l 1.1037,-27.8537 l -5.5216,-26.9738 l -11.1479,-23.7004 l -14.8165,-18.7788 l -16.0399,-13.3162 l -14.9177,-8.5117 l -12.1081,-5.3642 l -8.6624,-4.4293 l -5.7647,-5.6860 l -4.4383,-8.5437 l -5.2917,-11.9901 l -8.3673,-14.8418 l -13.1283,-16.0378 l -18.5877,-14.9026 l -23.5487,-11.3156 l -26.8958,-5.7443 l -27.8674,0.8655 l -26.2413,7.3176 l -22.3890,12.4539 l -17.1853,15.4336 l -11.7944,15.9350 l -7.3864,14.2303 l -4.8519,11.1148 l -4.5860,7.7084 l -6.3940,5.1782 l -9.5413,4.4488 l -12.9365,5.9737 l -15.4016,9.6206 l -15.9641,14.7022 l -14.0985,20.1418 l -9.8591,24.7357 l -3.8705,27.4464 l 2.8209,27.6556 l 8.9992,25.3156 l 13.5724,20.9604 l 15.8353,15.5757 l 15.6385,10.3583 l 13.4204,6.4241 l 10.0964,4.5370 l 6.8308,4.9232 l 4.7483,7.2186 l 4.6555,10.5606 l 6.8403,13.8022 l 10.9988,15.7961 l 16.3075,15.6794 l 21.6227,13.0881 l 25.7593,8.2505 l 27.7797,1.9356 l 27.2224,-4.7318 l 24.2150,-10.5414 l 19.4425,-14.4902 l 13.9809,-16.0234 l 9.0339,-15.1664 l 5.6401,-12.5145 l 4.4200,-9.0832 l 5.4265,-6.0562 l 8.1343,-4.4917 l 11.5713,-5.0605 l 14.5595,-7.8788 l 16.0073,-12.4773 l 15.1796,-17.9136 l 11.8824,-23.0013 l 6.5136,-26.5992 l -0.0300,-27.8893 l -6.5681,-26.5766 l -11.9218,-22.9612 l -15.1980,-17.8650 l -16.0037,-12.4311 l -14.5384,-7.8449 l -11.5410,-5.0453 l -8.1054,-4.4968 l -5.4089,-6.0780 l -4.4207,-9.1137 l -5.6612,-12.5432 l -9.0723,-15.1831 l -14.0289,-16.0208 l -19.4897,-14.4653 l -24.2508,-10.4968 l -27.2388,-4.6746 l -27.7728,1.9950 l -25.7308,8.3015 l -21.5790,13.1217 l -16.2585,15.6912 l -10.9553,15.7868 l -6.8114,13.7773 l -4.6463,10.5295 l -4.7589,7.1920 l -6.8561,4.9104 l -10.1274,4.5437 l -13.4466,6.4509 l -15.6502,10.4004 l -15.8263,15.6246 l -13.5413,21.0053 l -8.9500,25.3464 l -2.7619,27.6653 l 3.9285,27.4328 l 9.9057,24.7019 l 14.1260,20.0955 l 15.9694,14.6537 l 15.3869,9.5805 l 12.9087,5.9502 l 9.5105,4.4456 l 6.3706,5.1938 l 4.5785,7.7364 l 4.8645,11.1455 l 7.4183,14.2532 l 11.8396,15.9411 l 17.2341,15.4180 l 22.4307,12.4168 l 26.2665,7.2645 l 27.8704,0.8056 l 26.8758,-5.8000 l 23.5103,-11.3573 l 18.5396,-14.9238 l 13.0812,-16.0368 l 8.3314,-14.8224 l 5.2740,-11.9603 l 4.4410,-8.5140 l 5.7848,-5.6665 l 8.6923,-4.4275 l 12.1375,-5.3828 l 14.9365,-8.5483 l 16.0399,-13.3636 l 14.7943,-18.8267 l 11.1055,-23.7382 l 5.4655,-26.9928 l -1.1635,-27.8498 l -7.5804,-26.1130 l -12.6358,-22.1794 l -15.5083,-16.9416 l -15.9021,-11.5706 l -14.1148,-7.2297 l -10.9613,-4.7914 l -7.5698,-4.6258 l -5.1025,-6.5120 l -4.4674,-9.6951 l -6.0934,-13.0736 l -9.8220,-15.4725 l -14.9442,-15.9347 l -20.3717,-13.9584 l -24.9019,-9.6245 l -27.5111,-3.5805 l -27.6040,3.1141 l -25.1595,9.2425 l -20.7354,13.7247 l -15.3323,15.8775 l -10.1498,15.5778 l -6.2936,13.2886 l -4.5066,9.9418 l -4.9892,6.7061 l -7.3521,4.6979 l -10.7150,4.7042 l -13.9246,6.9871 l -15.8403,11.2171 l -15.6175,16.5516 l -12.9176,21.8389 l -7.9950,25.8989 l -1.6389,27.8108 l 5.0156,27.1380 l 10.7615,24.0342 l 14.6111,19.2065 l 16.0335,13.7424 l 15.0807,8.8445 l 12.3706,5.5376 l 8.9320,4.4193 l 5.9494,5.5162 l 4.4687,8.2794 l 5.1390,11.7218 l 8.0502,14.6632 l 12.7085,16.0223 l 18.1551,15.0851 l 23.1996,11.6836 l 26.7094,6.2408 l 27.8861,-0.3286 l 26.4609,-6.8381 l 22.7593,-12.1157 l 17.6227,-15.2866 l 12.2020,-15.9832 l 7.6778,-14.4310 l 4.9721,-11.3894 l 4.5249,-7.9621 l 6.1883,-5.3233 l 9.2658,-4.4267 l 12.6852,-5.7690 l 15.2645,-9.2655 l 16.0048,-14.2686 l 14.3386,-19.7240 l 10.2722,-24.4273 l 4.3888,-27.3174 l -2.2908,-27.7356 l -8.5535,-25.5862 l -13.2868,-21.3600 l -15.7471,-16.0144 l -15.7375,-10.7398 l -13.6519,-6.6694 l -10.3748,-4.6032 l -7.0610,-4.8141 l -4.8490,-6.9836 l -4.5795,-10.2822 l -6.5864,-13.5757 l -10.6120,-15.7060 l -15.8683,-15.7782 l -21.2278,-13.3835 l -25.4976,-8.7029 l -27.7108,-2.4675 l -27.3621,4.2169 l -24.5312,10.1360 l -19.8636,14.2604 l -14.4126,15.9930 l -9.3826,15.3115 l -5.8355,12.7694 l -4.4324,9.3573 l -5.2738,6.2558 l -7.8771,4.5437 l -11.2983,4.9305 l -14.3653,7.5795 l -15.9688,12.0657 l -15.3373,17.4773 l -12.2297,22.6371 l -6.9985,26.3894 l -0.5073,27.8818 l 6.0764,26.7731 l 11.5626,23.3169 l 15.0262,18.2994 l 16.0292,12.8476 l 14.7238,8.1545 l 11.8115,5.1882 l 8.3669,4.4570 l 5.5715,5.8868 l 4.4211,8.8420 l 5.4783,12.2837 l 8.7326,15.0277 l 13.6002,16.0373 l 19.0647,14.6812 l 23.9244,10.8915 l 27.0851,5.1846 l 27.8269,-1.4610 l 25.9803,-7.8406 l 21.9671,-12.8134 l 16.6977,-15.5781 l 11.3488,-15.8647 l 7.0767,-13.9966 l 4.7355,-10.8074 l 4.6697,-7.4331 l 6.6327,-5.0305 l 9.8493,-4.4906 l 13.2087,-6.2174 l 15.5395,-10.0262 l 15.9004,-15.1868 l 13.8136,-20.5997 l 9.3866,-25.0642 l 3.2891,-27.5707 l -3.4062,-27.5474 l -9.4825,-24.9995 l -13.8723,-20.5084 l -15.9147,-15.0893 l -15.5131,-9.9439 l -13.1547,-6.1671 l -9.7874,-4.4808 l -6.5840,-5.0589 l -4.6516,-7.4877 l -4.7574,-10.8692 l -7.1377,-14.0444 l -11.4376,-15.8802 l -16.7956,-15.5507 l -22.0526,-12.7426 l -26.0341,-7.7365 l -27.8367,-1.3417 l -27.0486,5.2976 l -23.8500,10.9778 l -18.9693,14.7272 l -13.5051,16.0389 l -8.6583,14.9915 l -5.4394,12.2252 l -4.4231,8.7818 l -5.6093,5.8455 l -8.4258,4.4501 l -11.8713,5.2221 l -14.7638,8.2251 l -16.0328,12.9412 l -14.9857,18.3959 l -11.4807,23.3949 l -5.9657,26.8149 l 0.6270,27.8778 l 7.1056,26.3406 l 12.3054,22.5546 l 15.3703,17.3798 l 15.9582,11.9747 l 14.3206,7.5144 l 11.2370,4.9035 l 7.8205,4.5572 l 5.2412,6.3015 l 4.4372,9.4187 l 5.8810,12.8256 l 9.4617,15.3422 l 14.5092,15.9841 l 19.9568,14.2071 l 24.6002,10.0440 l 27.3911,4.1013 l 27.6932,-2.5858 l 25.4374,-8.8025 l 21.1387,-13.4474 l 15.7705,-15.7981 l 10.5268,-15.6841 l 6.5315,-13.5242 l 4.5646,-10.2201 l 4.8732,-6.9321 l 7.1133,-4.7915 l 10.4369,-4.6200 l 13.7025,-6.7259 l 15.7578,-10.8260 l 15.7253,-16.1123 l 13.2211,-21.4482 l 8.4527,-25.6447 l 2.1722,-27.7511 l -4.5037,-27.2864 l -10.3628,-24.3569 l -14.3900,-19.6302 l -16.0118,-14.1723 l -15.2323,-9.1876 l -12.6284,-5.7252 l -9.2047,-4.4237 l -6.1437,-5.3573 l -4.5131,-8.0195 l -5.0009,-11.4503 l -7.7444,-14.4744 l -12.2938,-15.9920 l -17.7200,-15.2517 l -22.8407,-12.0384 l -26.5078,-6.7300 l -27.8880,-0.2087 l -26.6657,6.3506 l -23.1204,11.7639 l -18.0583,15.1237 l -12.6155,16.0168 l -7.9810,14.6220 l -5.1070,11.6615 l -4.4774,8.2210 l -5.9919,5.4798 l -8.9926,4.4191 l -12.4285,5.5782 l -15.1155,8.9202 l -16.0300,13.8380 l -14.5631,19.3014 l -10.6736,24.1072 l -4.9019,27.1725 l 1.7581,27.7989 l 8.0979,25.8434 l 12.9865,21.7524 l 15.6429,16.4536 l 15.8231,11.1292 l 13.8757,6.9277 l 10.6531,4.6841 l 7.2983,4.7177 l 4.9622,6.7559 l 4.5183,10.0038 l 6.3455,13.3418 l 10.2331,15.6026 l 15.4299,15.8612 l 20.8259,13.6641 l 25.2226,9.1453 l 27.6253,2.9966 l 27.4857,-3.6970 l 24.8356,-9.7191 l 20.2796,-14.0152 l 14.8470,-15.9471 l 9.7408,-15.4445 l 6.0448,-13.0188 l 4.4594,-9.6333 l 5.1324,-6.4643 l 7.6252,-4.6093 l 11.0230,-4.8151 l 14.1615,-7.2921 l 15.9158,-11.6602 l 15.4789,-17.0394 l 12.5633,-22.2638 l 7.4753,-26.1650 l 1.0439,-27.8575 l -5.5776,-26.9545 l -11.1903,-23.6625 l -14.8384,-18.7309 l -16.0397,-13.2690 l -14.8989,-8.4753 l -12.0785,-5.3457 l -8.6325,-4.4313 l -5.7448,-5.7056 l -4.4358,-8.5734 l -5.3096,-12.0198 l -8.4034,-14.8611 l -13.1754,-16.0386 l -18.6357,-14.8813 l -23.5870,-11.2737 l -26.9157,-5.6885 l -27.8643,0.9253 l -26.2159,7.3706 l -22.3471,12.4907 l -17.1364,15.4490 l -11.7493,15.9288 l -7.3546,14.2074 l -4.8394,11.0840 l -4.5936,7.6805 l -6.4174,5.1627 l -9.5721,4.4522 l -12.9641,5.9974 l -15.4161,9.6608 l -15.9586,14.7507 l -14.0708,20.1881 l -9.8123,24.7694 l -3.8124,27.4597 l 2.8798,27.6457 l 9.0483,25.2846 l 13.6033,20.9154 l 15.8442,15.5268 l 15.6266,10.3162 l 13.3941,6.3976 l 10.0653,4.5305 l 6.8056,4.9361 l 4.7379,7.2452 l 4.6649,10.5916 l 6.8695,13.8269 l 11.0425,15.8053 l 16.3565,15.6674 l 21.6662,13.0542 l 25.7876,8.1995 l 27.7864,1.8761 l 27.2059,-4.7889 l 24.1790,-10.5859 l 19.3953,-14.5148 l 13.9330,-16.0258 l 8.9957,-15.1495 l 5.6192,-12.4857 l 4.4195,-9.0528 l 5.4443,-6.0345 l 8.1633,-4.4867 l 11.6016,-5.0759 l 14.5806,-7.9129 l 16.0107,-12.5236 l 15.1611,-17.9621 l 11.8429,-23.0414 l 6.4591,-26.6217 l -0.0899,-27.8891 l -6.6225,-26.5537 l -11.9611,-22.9209 l -15.2162,-17.8165 l -16.0000,-12.3850 l -14.5171,-7.8111 l -11.5106,-5.0302 l -8.0765,-4.5021 l -5.3915,-6.0999 l -4.4215,-9.1442 l -5.6825,-12.5718 l -9.1108,-15.1998 l -14.0769,-16.0179 l -19.5369,-14.4403 l -24.2865,-10.4520 l -27.2550,-4.6174 l -27.7658,2.0545 l -25.7021,8.3523 l -21.5352,13.1552 l -16.2095,15.7028 l -10.9119,15.7772 l -6.7826,13.7523 l -4.6373,10.4985 l -4.7697,7.1655 l -6.8815,4.8977 l -10.1585,4.5505 l -13.4727,6.4777 l -15.6617,10.4427 l -15.8170,15.6735 l -13.5100,21.0501 l -8.9007,25.3771 l -2.7029,27.6749 l 3.9865,27.4190 l 9.9522,24.6679 l 14.1534,20.0491 l 15.9745,14.6052 l 15.3721,9.5406 l 12.8809,5.9268 l 9.4797,4.4426 l 6.3473,5.2095 l 4.5712,7.7645 l 4.8774,11.1762 l 7.4503,14.2759 l 11.8848,15.9470 l 17.2830,15.4022 l 22.4724,12.3796 l 26.2915,7.2113 l 27.8731,0.7458 l 26.8556,-5.8557 l 23.4717,-11.3988 l 18.4915,-14.9447 l 13.0342,-16.0357 l 8.2956,-14.8029 l 5.2564,-11.9305 l 4.4439,-8.4844 l 5.8051,-5.6472 l 8.7222,-4.4258 l 12.1670,-5.4016 l 14.9551,-8.5850 l 16.0398,-13.4110 l 14.7720,-18.8746 l 11.0628,-23.7758 l 5.4093,-27.0117 l -1.2232,-27.8456 l -7.6329,-26.0867 l -12.6718,-22.1370 l -15.5227,-16.8927 l -15.8949,-11.5259 l -14.0913,-7.1987 l -10.9305,-4.7798 l -7.5422,-4.6343 l -5.0877,-6.5360 l -4.4717,-9.7260 l -6.1179,-13.1008 l -9.8628,-15.4863 l -14.9928,-15.9282 l -20.4176,-13.9297 l -24.9348,-9.5770 l -27.5234,-3.5221 l -27.5931,3.1728 l -25.1277,9.2909 l -20.6900,13.7547 l -15.2835,15.8853 l -10.1082,15.5651 l -6.2678,13.2619 l -4.5011,9.9108 l -5.0029,6.6814 l -7.3792,4.6883 l -10.7460,4.7145 l -13.9488,7.0170 l -15.8487,11.2612 l -15.6045,16.6006 l -12.8828,21.8819 l -7.9433,25.9263 l -1.5793,27.8164 l 5.0723,27.1204 l 10.8052,23.9975 l 14.6348,19.1590 l 16.0350,13.6947 l 15.0631,8.8069 l 12.3415,5.5175 l 8.9018,4.4197 l 5.9283,5.5346 l 4.4646,8.3086 l 5.1554,11.7519 l 8.0850,14.6837 l 12.7550,16.0248 l 18.2035,15.0656 l 23.2391,11.6432 l 26.7309,6.1858 l 27.8849,-0.3885 l 26.4371,-6.8920 l 22.7185,-12.1541 l 17.5740,-15.3038 l 12.1563,-15.9786 l 7.6447,-14.4091 l 4.9580,-11.3589 l 4.5310,-7.9336 l 6.2108,-5.3066 l 9.2965,-4.4284 l 12.7135,-5.7911 l 15.2804,-9.3046 l 16.0011,-14.3168 l 14.3126,-19.7709 l 10.2267,-24.4623 l 4.3312,-27.3326 l -2.3501,-27.7275 l -8.6037,-25.5567 l -13.3194,-21.3158 l -15.7578,-15.9654 l -15.7271,-10.6969 l -13.6265,-6.6414 l -10.3438,-4.5951 l -7.0349,-4.8256 l -4.8371,-7.0094 l -4.5873,-10.3132 l -6.6140,-13.6014 l -10.6547,-15.7168 l -15.9173,-15.7680 l -21.2722,-13.3513 l -25.5275,-8.6530 l -27.7193,-2.4083 l -27.3473,4.2746 l -24.4965,10.1818 l -19.8169,14.2868 l -14.3643,15.9972 l -9.3432,15.2959 l -5.8130,12.7413 l -4.4303,9.3266 l -5.2902,6.2330 l -7.9056,4.5372 l -11.3288,4.9442 l -14.3874,7.6123 l -15.9738,12.1114 l -15.3205,17.5261 l -12.1917,22.6782 l -6.9448,26.4136 l -0.4474,27.8835 l 6.1316,26.7519 l 11.6033,23.2777 l 15.0461,18.2511 l 16.0271,12.8009 l 14.7036,8.1194 l 11.7814,5.1716 l 8.3375,4.4608 l 5.5529,5.9077 l 4.4203,8.8721 l 5.4980,12.3129 l 8.7700,15.0456 l 13.6478,16.0363 l 19.1123,14.6579 l 23.9613,10.8480 l 27.1030,5.1280 l 27.8217,-1.5207 l 25.9532,-7.8924 l 21.9242,-12.8485 l 16.6487,-15.5915 l 11.3046,-15.8567 l 7.0465,-13.9726 l 4.7248,-10.7764 l 4.6790,-7.4059 l 6.6572,-5.0165 l 9.8803,-4.4958 l 13.2356,-6.2427 l 15.5525,-10.0675 l 15.8929,-15.2355 l 13.7840,-20.6453 l 9.3384,-25.0963 l 3.2305,-27.5821 l -3.4647,-27.5354 l -9.5302,-24.9669 l -13.9013,-20.4626 l -15.9216,-15.0407 l -15.4997,-9.9029 l -13.1276,-6.1422 l -9.7564,-4.4761 l -6.5597,-5.0734 l -4.6428,-7.5152 l -4.7686,-10.9001 l -7.1683,-14.0681 l -11.4821,-15.8877 l -16.8445,-15.5367 l -22.0952,-12.7070 l -26.0607,-7.6843 l -27.8413,-1.2819 l -27.0301,5.3539 l -23.8127,11.0208 l -18.9216,14.7499 l -13.4576,16.0395 l -8.6213,14.9732 l -5.4203,12.1959 l -4.4244,8.7517 l -5.6283,5.8251 l -8.4553,4.4469 l -11.9012,5.2393 l -14.7836,8.2606 l -16.0343,12.9881 l -14.9651,18.4441 l -11.4395,23.4337 l -5.9103,26.8355 l 0.6869,27.8755 l 7.1590,26.3160 l 12.3429,22.5132 l 15.3865,17.3309 l 15.9527,11.9293 l 14.2981,7.4820 l 11.2064,4.8902 l 7.7922,4.5641 l 5.2252,6.3246 l 4.4398,9.4494 l 5.9040,12.8535 l 9.5014,15.3573 l 14.5576,15.9794 l 20.0034,14.1801 l 24.6344,9.9978 l 27.4052,4.0435 l 27.6840,-2.6449 l 25.4071,-8.8521 l 21.0941,-13.4790 l 15.7215,-15.8078 l 10.4843,-15.6729 l 6.5043,-13.4982 l 4.5574,-10.1890 l 4.8855,-6.9065 l 7.1396,-4.7804 l 10.4680,-4.6286 l 13.7277,-6.7544 l 15.7677,-10.8693 l 15.7141,-16.1613 l 13.1880,-21.4921 l 8.4021,-25.6737 l 2.1128,-27.7586 l -4.5611,-27.2707 l -10.4079,-24.3215 l -14.4155,-19.5831 l -16.0150,-14.1242 l -15.2160,-9.1488 l -12.5999,-5.7036 l -9.1741,-4.4225 l -6.1216,-5.3745 l -4.5074,-8.0482 l -5.0156,-11.4807 l -7.7780,-14.4960 l -12.3398,-15.9961 l -17.7687,-15.2339 l -22.8812,-11.9995 l -26.5311,-6.6758 l -27.8886,-0.1488 l -26.6436,6.4053 l -23.0806,11.8038 l -18.0098,15.1426 l -12.5691,16.0138 l -7.9466,14.6012 l -5.0912,11.6313 l -4.4820,8.1919 l -6.0133,5.4618 l -9.0230,4.4192 l -12.4574,5.5988 l -15.1327,8.9582 l -16.0280,13.8859 l -14.5389,19.3488 l -10.6294,24.1434 l -4.8449,27.1894 l 1.8176,27.7927 l 8.1492,25.8153 l 13.0207,21.7090 l 15.6554,16.4046 l 15.8142,11.0854 l 13.8512,6.8983 l 10.6221,4.6744 l 7.2715,4.7278 l 4.9490,6.7809 l 4.5244,10.0348 l 6.3717,13.3682 l 10.2750,15.6148 l 15.4788,15.8527 l 20.8711,13.6336 l 25.2539,9.0964 l 27.6357,2.9377 l 27.4727,-3.7552 l 24.8023,-9.7661 l 20.2335,-14.0433 l 14.7984,-15.9530 l 9.7004,-15.4303 l 6.0208,-12.9913 l 4.4557,-9.6024 l 5.1476,-6.4406 l 7.6530,-4.6013 l 11.0538,-4.8272 l 14.1847,-7.3236 l 15.9224,-11.7051 l 15.4639,-17.0883 l 12.5268,-22.3059 l 7.4225,-26.1908 l 0.9841,-27.8610 l -5.6336,-26.9350 l -11.2324,-23.6245 l -14.8601,-18.6829 l -16.0392,-13.2217 l -14.8799,-8.4390 l -12.0489,-5.3274 l -8.6027,-4.4335 l -5.7249,-5.7253 l -4.4334,-8.6032 l -5.3277,-12.0494 l -8.4396,-14.8802 l -13.2225,-16.0392 l -18.6837,-14.8598 l -23.6251,-11.2317 l -26.9354,-5.6326 l -27.8610,0.9851 l -26.1903,7.4234 l -22.3052,12.5274 l -17.0875,15.4642 l -11.7043,15.9223 l -7.3230,14.1843 l -4.8270,11.0532 l -4.6015,7.6526 l -6.4410,5.1473 l -9.6030,4.4558 l -12.9917,6.0212 l -15.4305,9.7011 l -15.9529,14.7992 l -14.0428,20.2343 l -9.7653,24.8029 l -3.7542,27.4729 l 2.9387,27.6355 l 9.0973,25.2534 l 13.6341,20.8703 l 15.8528,15.4779 l 15.6146,10.2743 l 13.3678,6.3712 l 10.0343,4.5243 l 6.7805,4.9492 l 4.7276,7.2719 l 4.6745,10.6226 l 6.8988,13.8516 l 11.0862,15.8144 l 16.4054,15.6551 l 21.7097,13.0202 l 25.8158,8.1483 l 27.7928,1.8166 l 27.1891,-4.8459 l 24.1428,-10.6302 l 19.3480,-14.5393 l 13.8851,-16.0280 l 8.9575,-15.1324 l 5.5984,-12.4569 l 4.4192,-9.0225 l 5.4621,-6.0130 l 8.1924,-4.4819 l 11.6318,-5.0915 l 14.6015,-7.9472 l 16.0139,-12.5699 l 15.1423,-18.0106 l 11.8031,-23.0813 l 6.4044,-26.6440 l -0.1498,-27.8886 l -6.6767,-26.5307 l -12.0002,-22.8805 l -15.2342,-17.7678 l -15.9960,-12.3390 l -14.4956,-7.7774 l -11.4802,-5.0153 l -8.0477,-4.5075 l -5.3742,-6.1219 l -4.4226,-9.1747 l -5.7039,-12.6004 l -9.1495,-15.2162 l -14.1250,-16.0149 l -19.5839,-14.4150 l -24.3221,-10.4071 l -27.2709,-4.5601 l -27.7585,2.1139 l -25.6732,8.4030 l -21.4914,13.1885 l -16.1605,15.7142 l -10.8685,15.7675 l -6.7539,13.7273 l -4.6285,10.4675 l -4.7806,7.1391 l -6.9070,4.8853 l -10.1895,4.5575 l -13.4987,6.5048 l -15.6731,10.4850 l -15.8076,15.7224 l -13.4785,21.0948 l -8.8512,25.4076 l -2.6439,27.6842 l 4.0444,27.4050 l 9.9986,24.6338 l 14.1805,20.0026 l 15.9795,14.5568 l 15.3571,9.5007 l 12.8530,5.9036 l 9.4489,4.4398 l 6.3242,5.2254 l 4.5640,7.7927 l 4.8905,11.2069 l 7.4826,14.2985 l 11.9301,15.9528 l 17.3318,15.3862 l 22.5139,12.3423 l 26.3164,7.1581 l 27.8756,0.6859 l 26.8352,-5.9112 l 23.4330,-11.4402 l 18.4433,-14.9655 l 12.9873,-16.0343 l 8.2600,-14.7832 l 5.2390,-11.9007 l 4.4469,-8.4548 l 5.8254,-5.6280 l 8.7522,-4.4244 l 12.1964,-5.4206 "/></g></svg>