<?xml version="1.0" encoding="UTF-8"?>
<!DOCTYPE svg PUBLIC "-//W3C//DTD SVG 1.1//EN"
    "http://www.w3.org/Graphics/SVG/1.1/DTD/svg11.dtd"><svg xmlns="http://www.w3.org/2000/svg" height="400.0000" stroke-opacity="1" viewBox="0 0 400 400" font-size="1" width="400.0000" xmlns:xlink="http://www.w3.org/1999/xlink" stroke="rgb(0,0,0)" version="1.1"><defs></defs><g stroke-linejoin="miter" stroke-opacity="1.0" fill-opacity="0.0" stroke="rgb(0,0,0)" stroke-width="1.5997029016231565" fill="rgb(0,0,0)" stroke-linecap="butt" stroke-miterlimit="10.0"><path d="M 399.9257,199.8903 l -5.3995,-40.9275 l -15.7140,-37.7996 l -24.6217,-31.8413 l -31.3369,-23.6183 l -35.2861,-13.9095 l -36.1639,-3.6311 l -33.9614,6.2529 l -28.9668,14.8247 l -21.7362,21.3018 l -13.0386,25.1133 l -3.7802,25.9550 l 5.0854,23.8184 l 12.6504,18.9910 l 18.1425,12.0273 l 21.0005,3.6937 l 20.9297,-5.1075 l 17.9309,-13.4270 l 12.3002,-20.3626 l 4.6000,-25.1482 l -4.3959,-27.2297 l -13.7786,-26.3202 l -22.5929,-22.4288 l -29.9317,-15.8605 l -35.0249,-7.1872 l -37.3154,2.8077 l -36.5141,13.2051 l -32.6290,23.0400 l -25.9651,31.3949 l -17.0953,37.4896 l -6.8048,40.7569 l 3.9842,40.8981 l 14.3028,37.9116 l 23.2288,32.0936 l 29.9761,24.0084 l 33.9711,14.4335 l 34.9077,4.2838 l 32.7767,-5.4781 l 27.8653,-13.9355 l 20.7290,-20.3071 l 12.1358,-24.0230 l 2.9907,-24.7799 l -5.7536,-22.5704 l -13.1907,-17.6825 l -18.5494,-10.6714 l -21.2701,-2.3039 l -21.0592,6.5172 l -17.9190,14.8426 l -12.1470,21.7699 l -4.3071,26.5331 l 4.8256,28.5785 l 14.3408,27.6194 l 23.2820,23.6654 l 30.7408,17.0221 l 35.9460,8.2622 l 38.3392,-1.8300 l 37.6303,-12.3345 l 33.8266,-22.2852 l 27.2321,-30.7634 l 18.4189,-36.9877 l 8.1720,-40.3897 l -2.5872,-40.6692 l -12.8900,-37.8234 l -21.8141,-32.1468 l -28.5738,-24.2026 l -32.5952,-14.7667 l -33.5720,-4.7527 l -31.4944,4.8782 l -26.6494,13.2105 l -19.5915,19.4644 l -11.0881,23.0709 l -2.0433,23.7281 l 6.5913,21.4292 l 13.9102,16.4634 l 19.1437,9.3865 l 21.7330,0.9662 l 21.3863,-7.8945 l 18.1070,-16.2457 l 12.1940,-23.1847 l 4.2126,-27.9456 l -5.0607,-29.9745 l -14.7140,-28.9849 l -23.7897,-24.9868 l -31.3779,-18.2863 l -36.7061,-9.4565 l -39.2147,0.7176 l -38.6126,11.3151 l -34.9057,21.3689 l -28.3973,29.9595 l -19.6586,36.3041 l -9.4737,39.8333 l 1.2365,40.2455 l 11.5037,37.5366 l 20.4062,31.9999 l 27.1582,24.1969 l 31.1861,14.9025 l 32.1835,5.0284 l 30.1404,-4.4652 l 25.3433,-12.6645 l 18.3465,-18.7906 l 9.9166,-22.2763 l 0.9570,-22.8204 l -7.5816,-20.4176 l -14.7946,-15.3580 l -19.9133,-8.1984 l -22.3802,0.2929 l -21.9045,9.2119 l -18.4911,17.6082 l -12.4401,24.5788 l -4.3183,29.3573 l 5.0964,31.3897 l 14.8908,30.3895 l 24.1058,26.3667 l 31.8302,19.6277 l 37.2901,10.7460 l 39.9245,0.5072 l 39.4411,-10.1673 l 35.8447,-20.3095 l 29.4373,-28.9991 l 20.7893,-35.4524 l 10.6838,-39.0987 l 0.0409,-39.6354 l -10.1717,-37.0571 l -19.0330,-31.6558 l -25.7576,-23.9916 l -29.7720,-14.8380 l -30.7700,-5.1054 l -28.7416,4.2475 l -23.9733,12.3082 l -17.0189,18.2993 l -8.6446,21.6549 l 0.2466,22.0752 l 8.7047,19.5559 l 15.8261,14.3885 l 20.8428,7.1307 l 23.1985,-1.4480 l 22.6035,-10.4429 l 19.0637,-18.9029 l 12.8806,-25.9242 l 4.6222,-30.7399 l -4.9320,-32.7957 l -14.8677,-31.8049 l -24.2241,-27.7774 l -32.0887,-21.0195 l -37.6862,-12.1051 l -40.4543,-1.8200 l -40.0994,8.9140 l -36.6248,19.1282 l -30.3314,27.9016 l -21.7885,34.4496 l -11.7781,38.2007 l -1.2194,38.8511 l 8.9208,36.3944 l 17.7222,31.1213 l 24.3999,23.5906 l 28.3811,14.5746 l 29.3597,4.9822 l 27.3261,-4.2293 l 22.5666,-12.1488 l 15.6352,-18.0003 l 7.2977,-21.2192 l -1.5433,-21.5072 l -9.9382,-18.8613 l -16.9841,-13.5742 l -21.9138,-6.2049 l -24.1717,2.4761 l -23.4691,11.5630 l -19.8132,20.1038 l -13.5064,27.1939 l -5.1182,32.0658 l 4.5709,34.1645 l 14.6450,33.2029 l 24.1421,29.1906 l 32.1482,22.4339 l 37.8866,13.5065 l 40.7936,3.1943 l 40.5742,-7.5804 l 37.2303,-17.8487 l 31.0617,-26.6889 l 22.6362,-33.3159 l 12.7348,-37.1572 l 2.2755,-37.9084 l -7.7759,-35.5618 l -16.4999,-30.4071 l -23.1124,-23.0021 l -27.0413,-14.1175 l -27.9810,-4.6612 l -25.9222,4.4111 l -21.1516,12.1895 l -14.2231,17.8996 l -5.9028,20.9780 l 2.9071,21.1279 l 11.2574,18.3478 l 18.2454,12.9315 l 23.1046,5.4396 l 25.2802,-3.3565 l 24.4842,-12.5497 l 20.7247,-21.1869 l 14.3052,-28.3626 l 5.7964,-33.3084 l -4.0202,-35.4686 l -14.2272,-34.5555 l -23.8615,-30.5781 l -32.0075,-23.8425 l -37.8872,-14.9221 l -40.9356,-4.6028 l -40.8560,6.1931 l -37.6493,16.4965 l -31.6136,25.3853 l -23.3155,32.0739 l -13.5346,35.9892 l -3.1879,36.8260 l 6.7600,34.5760 l 15.3906,29.5277 l 21.9209,22.2378 l 25.7794,13.4759 l 26.6613,4.1488 l 24.5580,-4.7891 l 19.7565,-12.4295 l 12.8110,-17.9991 l 4.4878,-20.9360 l -4.3109,-20.9449 l -12.6359,-18.0255 l -19.5848,-12.4733 l -24.3916,-4.8499 l -26.5018,4.0718 l -25.6284,13.3833 l -21.7799,22.1306 l -15.2610,29.4069 l -6.6431,34.4429 l 3.2910,36.6820 l 13.6228,35.8356 l 23.3878,31.9122 l 31.6694,25.2172 l 37.6881,16.3236 l 40.8774,6.0172 l 40.9393,-4.7799 l 37.8732,-15.0987 l 31.9759,-24.0168 l 23.8126,-30.7484 l 14.1616,-34.7200 l 3.9385,-35.6258 l -5.8933,-33.4567 l -14.4165,-28.5004 l -20.8491,-21.3129 l -24.6206,-12.6627 l -25.4272,-3.4553 l -23.2608,5.3559 l -18.4092,12.8639 l -11.4271,18.2969 l -3.0810,21.0942 l 5.7264,20.9618 l 14.0460,17.9010 l 20.9755,12.2086 l 25.7489,4.4477 l 27.8122,-4.6074 l 26.8787,-14.0471 l 22.9577,-22.9159 l 16.3545,-30.3059 l 7.6414,-35.4466 l -2.3978,-37.7803 l -12.8437,-37.0175 l -22.7307,-33.1660 l -31.1408,-26.5303 l -37.2931,-17.6830 l -40.6201,-7.4093 l -40.8223,3.3691 l -37.8976,13.6832 l -32.1416,22.6109 l -24.1178,29.3661 l -14.6033,33.3750 l -4.5122,34.3316 l 5.1933,32.2262 l 13.5972,27.3461 l 19.9186,20.2461 l 23.5883,11.6941 l 24.3033,2.5946 l 22.0566,-6.1001 l 17.1367,-13.4842 l 10.0990,-18.7870 l 1.7107,-21.4493 l -7.1254,-21.1783 l -15.4596,-17.9768 l -22.3896,-12.1429 l -27.1494,-4.2411 l -29.1851,4.9528 l -28.2102,14.5278 l -24.2346,23.5271 l -17.5640,31.0415 l -8.7714,36.2993 l 1.3586,38.7415 l 11.9057,38.0778 l 21.9032,34.3146 l 30.4320,27.7558 l 36.7103,18.9731 l 40.1690,8.7511 l 40.5074,-1.9890 l 37.7221,-12.2786 l 32.1071,-21.1957 l 24.2248,-27.9545 l 14.8507,-31.9812 l 4.8975,-32.9694 l -4.6739,-30.9093 l -12.9489,-26.0876 l -19.1480,-19.0586 l -22.7029,-10.5895 l -23.3121,-1.5839 l -20.9694,7.0068 l -15.9644,14.2778 l -8.8534,19.4596 l -0.4041,21.9942 l 8.4798,21.5901 l 16.8484,18.2513 l 23.7988,12.2774 l 28.5650,4.2342 l 30.5929,-5.1010 l 29.5962,-14.8158 l 25.5849,-23.9520 l 18.8652,-31.5992 l 10.0104,-36.9840 l -0.1942,-39.5465 l -10.8274,-38.9950 l -20.9219,-35.3349 l -29.5575,-28.8690 l -35.9512,-20.1680 l -39.5330,-10.0158 l -40.0008,0.6671 l -37.3501,10.9127 l -31.8733,19.7995 l -24.1315,26.5419 l -14.8989,30.5664 l -5.0868,31.5665 l 4.3456,29.5323 l 12.4847,24.7502 l 18.5526,17.7743 l 21.9823,9.3710 l 22.4734,0.4435 l 20.0211,-8.0579 l 14.9159,-15.2289 l 7.7152,-20.3013 l -0.8124,-22.7180 l -9.7626,-22.1888 l -18.1845,-18.7190 l -25.1750,-12.6093 l -29.9674,-4.4272 l -32.0076,5.0490 l -31.0090,14.9054 l -26.9817,24.1822 l -20.2320,31.9676 l -11.3336,37.4870 l -1.0722,40.1792 l 9.6305,39.7509 l 19.8064,36.2065 l 28.5346,29.8476 l 35.0312,21.2439 l 38.7249,11.1782 l 39.3128,0.5701 l 36.7890,-9.6130 l 31.4448,-18.4503 l 23.8399,-25.1567 l 14.7470,-29.1590 l 5.0761,-30.1509 l -4.2148,-28.1227 l -12.2139,-23.3607 l -18.1444,-16.4188 l -21.4408,-8.0630 l -21.8041,0.8039 l -19.2306,9.2322 l -14.0121,16.3185 l -6.7071,21.2952 l 1.9147,23.6063 l 10.9480,22.9626 l 19.4412,19.3706 l 26.4905,13.1322 l 31.3285,4.8161 l 33.4007,-4.7979 l 32.4203,-14.7946 l 28.3970,-24.2128 l 21.6372,-32.1394 l 12.7146,-37.7983 l 2.4152,-40.6267 l -8.3389,-40.3303 l -18.5791,-36.9120 l -27.3838,-30.6720 l -33.9685,-22.1791 l -37.7609,-12.2148 l -38.4571,-1.6978 l -36.0501,8.4055 l -30.8302,17.1751 l -23.3556,23.8265 l -14.3980,27.7870 l -4.8658,28.7510 l 4.2843,26.7088 l 12.1419,21.9470 l 17.9316,15.0193 l 21.0894,6.6917 l 21.3175,-2.1333 l 18.6137,-10.5063 l 13.2711,-17.5247 l 5.8494,-22.4214 l -2.8805,-24.6412 l -12.0123,-23.8960 l -20.5935,-20.1930 l -27.7191,-13.8355 l -32.6212,-5.3932 l -34.7445,4.3527 l -33.8018,14.4858 l -29.8025,24.0435 l -23.0525,32.1112 l -14.1257,37.9115 l -3.8080,40.8803 l 6.9784,40.7216 l 17.2645,37.4372 l 26.1282,31.3259 l 32.7844,22.9550 l 36.6602,13.1050 l 37.4508,2.6935 l 35.1483,-7.3143 l 30.0418,-15.9993 l 22.6885,-22.5779 l 13.8588,-26.4781 l 4.4601,-27.3948 l -4.5527,-25.3189 l -12.2701,-20.5371 l -17.9185,-13.6037 l -20.9350,-5.2846 l -21.0234,3.5180 l -18.1828,11.8548 l -12.7077,18.8234 l -5.1592,23.6573 l 3.6907,25.8021 l 12.9343,24.9702 l 21.6181,21.1698 l 28.8361,14.7051 l 33.8194,6.1470 l 36.0121,-3.7224 l 35.1260,-13.9851 l 31.1699,-23.6775 l 24.4497,-31.8836 l 15.5386,-37.8245 l 5.2225,-40.9348 l -5.5764,-40.9171 l -15.8889,-37.7716 l -24.7930,-31.7959 l -31.5027,-23.5561 l -35.4450,-13.8310 l -36.3141,-3.5372 l -34.1015,6.3614 l -29.0953,14.9466 l -21.8519,21.4359 l -13.1404,25.2583 l -3.8670,26.1094 l 5.0145,23.9807 l 12.5960,19.1595 l 18.1052,12.2004 l 20.9807,3.8697 l 20.9276,-4.9304 l 17.9465,-13.2505 l 12.3333,-20.1886 l 4.6503,-24.9783 l -4.3289,-27.0657 l -13.6955,-26.1637 l -22.4946,-22.2814 l -29.8192,-15.7237 l -34.8993,-7.0623 l -37.1780,2.9194 l -36.3662,13.3026 l -32.4721,23.1222 l -25.8008,31.4611 l -16.9252,37.5390 l -6.6307,40.7891 l 4.1607,40.9127 l 14.4799,37.9086 l 23.4047,32.0729 l 30.1490,23.9702 l 34.1394,14.3783 l 35.0697,4.2120 l 32.9306,-5.5657 l 28.0098,-14.0380 l 20.8625,-20.4235 l 12.2570,-24.1522 l 3.0984,-24.9206 l -5.6605,-22.7211 l -13.1131,-17.8417 l -18.4881,-10.8376 l -21.2256,-2.4754 l -21.0321,6.3421 l -17.9095,14.6657 l -12.1552,21.5929 l -4.3329,26.3579 l 4.7824,28.4067 l 14.2806,27.4528 l 23.2055,23.5056 l 30.6488,16.8708 l 35.8393,8.1208 l 38.2189,-1.9600 l 37.4977,-12.4519 l 33.6829,-22.3887 l 27.0788,-30.8521 l 18.2575,-37.0607 l 8.0041,-40.4462 l -2.7599,-40.7086 l -13.0657,-37.8453 l -21.9912,-32.1512 l -28.7505,-24.1892 l -32.7696,-14.7358 l -33.7425,-4.7045 l -31.6592,4.9431 l -26.8069,13.2916 l -19.7401,19.5608 l -11.2264,23.1817 l -2.1698,23.8521 l 6.4778,21.5652 l 13.8109,16.6101 l 19.0595,9.5424 l 21.6649,1.1296 l 21.3348,-7.7250 l 18.0727,-16.0719 l 12.1772,-23.0084 l 4.2134,-27.7685 l -5.0421,-29.7983 l -14.6780,-28.8115 l -23.7365,-24.8178 l -31.3081,-18.1235 l -36.6204,-9.3014 l -39.1140,0.8633 l -38.4978,11.4500 l -34.7780,21.4917 l -28.2580,30.0689 l -19.5090,36.3991 l -9.3154,39.9128 l 1.4019,40.3088 l 11.6746,37.5832 l 20.5809,32.0292 l 27.3350,24.2086 l 31.3632,14.8964 l 32.3591,5.0048 l 30.3127,-4.5063 l 25.5107,-12.7225 l 18.5072,-18.8651 l 10.0691,-22.3665 l 1.0997,-22.9254 l -7.4500,-20.5363 l -14.6756,-15.4892 l -19.8079,-8.3408 l -22.2896,0.1407 l -21.8296,9.0514 l -18.4326,17.4410 l -12.3986,24.4066 l -4.2942,29.1818 l 5.1029,31.2126 l 14.8796,30.2127 l 24.0770,26.1919 l 31.7841,19.4567 l 37.2271,10.5804 l 39.8453,0.3488 l 39.3465,-10.3170 l 35.7356,-20.4491 l 29.3149,-29.1271 l 20.6547,-35.5675 l 10.5384,-39.1998 l -0.1139,-39.7214 l -10.3344,-37.1273 l -19.2018,-31.7094 l -25.9309,-24.0281 l -29.9481,-14.8570 l -30.9471,-5.1068 l -28.9180,4.2638 l -24.1471,12.3420 l -17.1885,18.3504 l -8.8083,21.7227 l 0.0905,22.1589 l 8.5578,19.6548 l 15.6898,14.5016 l 20.7185,7.2569 l 23.0874,-1.3101 l 22.5067,-10.2946 l 18.9821,-18.7456 l 12.8151,-25.7595 l 4.5736,-30.5696 l -4.9634,-32.6214 l -14.8815,-31.6283 l -24.2202,-27.6003 l -32.0672,-20.8437 l -37.6473,-11.9323 l -40.3983,-1.6519 l -40.0269,9.0756 l -36.5365,19.2818 l -30.2283,28.0456 l -21.6715,34.5826 l -11.6484,38.3213 l -1.0783,38.9582 l 9.0719,36.4868 l 17.8817,31.1982 l 24.5664,23.6512 l 28.5527,14.6182 l 29.5349,5.0085 l 27.5030,-4.2206 l 22.7436,-12.1578 l 15.8103,-18.0269 l 7.4693,-21.2632 l -1.3769,-21.5681 l -9.7788,-18.9385 l -16.8332,-13.6669 l -21.7729,-6.3123 l -24.0422,2.3552 l -23.3524,11.4298 l -19.7103,19.9596 l -13.4184,27.0402 l -5.0460,31.9040 l 4.6266,33.9963 l 14.6836,33.0300 l 24.1633,29.0147 l 32.1517,22.2568 l 37.8724,13.3299 l 40.7619,3.0201 l 40.5252,-7.7506 l 37.1646,-18.0132 l 30.9799,-26.8460 l 22.5391,-33.4640 l 12.6234,-37.2950 l 2.1509,-38.0343 l -7.9125,-35.6747 l -16.6470,-30.5058 l -23.2687,-23.0856 l -27.2051,-14.1850 l -28.1507,-4.7120 l -26.0961,4.3775 l -21.3280,12.1734 l -14.4003,17.9012 l -6.0789,20.9973 l 2.7339,21.1647 l 11.0887,18.4017 l 18.0829,13.0020 l 22.9500,5.5259 l 25.1349,-3.2552 l 24.3498,-12.4344 l 20.6024,-21.0587 l 14.1964,-28.2229 l 5.7020,-33.1585 l -4.0991,-35.3100 l -14.2899,-34.3898 l -23.9072,-30.4070 l -32.0360,-23.6677 l -37.8981,-14.7453 l -40.9288,-4.4258 l -40.8316,6.3685 l -37.6074,16.6686 l -31.5548,25.5523 l -23.2403,32.2342 l -13.4438,36.1413 l -3.0824,36.9683 l 6.8792,34.7070 l 15.5223,29.6461 l 22.0638,22.3425 l 25.9320,13.5658 l 26.8222,4.2230 l 24.7254,-4.7314 l 19.9289,-12.3887 l 12.9866,-17.9757 l 4.6648,-20.9303 l -4.1342,-20.9569 l -12.4612,-18.0551 l -19.4140,-12.5201 l -24.2263,-4.9136 l -26.3437,3.9919 l -25.4790,13.2881 l -21.6408,22.0209 l -15.1335,29.2839 l -6.5285,34.3078 l 3.3914,36.5361 l 13.7082,35.6804 l 23.4573,31.7492 l 31.7223,25.0481 l 37.7238,16.1501 l 40.8956,5.8410 l 40.9398,-4.9570 l 37.8561,-15.2750 l 31.9413,-24.1905 l 23.7608,-30.9178 l 14.0932,-34.8834 l 3.8541,-35.7815 l -5.9929,-33.6032 l -14.5302,-28.6363 l -20.9758,-21.4367 l -24.7591,-12.7732 l -25.5760,-3.5515 l -23.4184,5.2751 l -18.5741,12.7992 l -11.5976,18.2489 l -3.2555,21.0635 l 5.5498,20.9487 l 13.8689,17.9057 l 20.7998,12.2309 l 25.5763,4.4874 l 27.6444,-4.5507 l 26.7174,-13.9739 l 22.8045,-22.8269 l 16.2110,-30.2021 l 7.5089,-35.3289 l -2.5179,-37.6500 l -12.9502,-36.8760 l -22.8225,-33.0145 l -31.2170,-26.3704 l -37.3530,-17.5163 l -40.6630,-7.2374 l -40.8478,3.5444 l -37.9056,13.8602 l -32.1318,22.7878 l -24.0904,29.5411 l -14.5585,33.5464 l -4.4506,34.4977 l 5.2712,32.3853 l 13.6905,27.4966 l 20.0266,20.3865 l 23.7097,11.8231 l 24.4370,2.7108 l 22.2012,-5.9979 l 17.2908,-13.3969 l 10.2611,-18.7155 l 1.8791,-21.3943 l -6.9523,-21.1404 l -15.2837,-17.9564 l -22.2125,-12.1402 l -26.9729,-4.2561 l -29.0109,4.9203 l -28.0402,14.4781 l -24.0704,23.4607 l -17.4072,30.9590 l -8.6237,36.2015 l 1.4959,38.6295 l 12.0311,37.9526 l 22.0154,34.1776 l 30.5300,27.6082 l 36.7931,18.8165 l 40.2357,8.5870 l 40.5574,-2.1589 l 37.7549,-12.4526 l 32.1224,-21.3722 l 24.2224,-28.1316 l 14.8306,-32.1572 l 4.8600,-33.1425 l -4.7286,-31.0778 l -13.0201,-26.2498 l -19.2350,-19.2129 l -22.8049,-10.7343 l -23.4281,-1.7178 l -21.0982,6.8852 l -16.1047,14.1696 l -9.0037,19.3660 l -0.5631,21.9160 l 8.3138,21.5281 l 16.6771,18.2062 l 23.6239,12.2497 l 28.3881,4.2241 l 30.4159,-5.0934 l 29.4209,-14.7906 l 25.4130,-23.9094 l 18.6983,-31.5396 l 9.8503,-36.9081 l -0.3458,-39.4550 l -10.9692,-38.8888 l -21.0523,-35.2151 l -29.6753,-28.7367 l -36.0553,-20.0247 l -39.6222,-9.8628 l -40.0743,0.8282 l -37.4071,11.0804 l -31.9133,19.9721 l -24.1541,26.7176 l -14.9038,30.7435 l -5.0740,31.7432 l 4.3759,29.7068 l 12.5323,24.9208 l 18.6170,17.9393 l 22.0629,9.5288 l 22.5693,0.5924 l 20.1314,-7.9192 l 15.0395,-15.1020 l 7.8508,-20.1873 l -0.6661,-22.6182 l -9.6070,-22.1041 l -18.0212,-18.6502 l -25.0057,-12.5572 l -29.7937,-4.3922 l -31.8313,5.0664 l -30.8319,14.9051 l -26.8055,24.1642 l -20.0585,31.9321 l -11.1645,37.4345 l -0.9092,40.1100 l 9.7858,39.6658 l 19.9524,36.1063 l 28.6699,29.7333 l 35.1544,21.1166 l 38.8349,11.0392 l 39.4083,0.4209 l 36.8691,-9.7710 l 31.5088,-18.6155 l 23.8870,-25.3274 l 14.7769,-29.3336 l 5.0884,-30.3277 l -4.2202,-28.2998 l -12.2370,-23.5364 l -18.1849,-16.5912 l -21.4983,-8.2306 l -21.8780,0.6429 l -19.3202,9.0794 l -14.1165,16.1754 l -6.8253,21.1632 l 1.7839,23.4868 l 10.8059,22.8568 l 19.2893,19.2795 l 26.3303,13.0567 l 31.1615,4.7570 l 33.2287,-4.8401 l 32.2449,-14.8194 l 28.2200,-24.2200 l 21.4603,-32.1288 l 12.5397,-37.7701 l 2.2440,-40.5812 l -8.5047,-40.2679 l -18.7378,-36.8334 l -27.5339,-30.5780 l -34.1084,-22.0705 l -37.8893,-12.0928 l -38.5727,-1.5636 l -36.1518,8.5506 l -30.9168,17.3296 l -23.4264,23.9889 l -14.4522,27.9557 l -4.9029,28.9242 l 4.2647,26.8849 l 12.1400,22.1241 l 17.9474,15.1957 l 21.1227,6.8657 l 21.3680,-1.9635 l 18.6809,-10.3424 l 13.3543,-17.3683 l 5.9478,-22.2741 l -2.7679,-24.5045 l -11.8866,-23.7712 l -20.4559,-20.0814 l -27.5711,-13.7381 l -32.4642,-5.3111 l -34.5802,4.4187 l -33.6317,14.5351 l -29.6282,24.0755 l -22.8760,32.1257 l -13.9486,37.9083 l -3.6321,40.8594 l 7.1514,40.6833 l 17.4327,37.3818 l 26.2901,31.2539 l 32.9383,22.8673 l 36.8046,13.0024 l 37.5842,2.5769 l 35.2694,-7.4436 l 30.1493,-16.1400 l 22.7815,-22.7287 l 13.9363,-26.6374 l 4.5212,-27.5610 l -4.5084,-25.4904 l -12.2432,-20.7122 l -17.9092,-13.7806 l -20.9434,-5.4615 l -21.0494,3.3428 l -18.2262,11.6830 l -12.7680,18.6568 l -5.2358,23.4976 l 3.5985,25.6509 l 12.8275,24.8289 l 21.4977,21.0399 l 28.7033,14.5879 l 33.6756,6.0435 l 35.8587,-3.8109 l 34.9645,-14.0579 l 31.0020,-23.7338 l 24.2770,-31.9228 l 15.3628,-37.8464 l 5.0455,-40.9389 l -5.7530,-40.9035 l -16.0633,-37.7405 l -24.9634,-31.7476 l -31.6675,-23.4909 l -35.6024,-13.7498 l -36.4626,-3.4406 l -34.2396,6.4723 l -29.2217,15.0707 l -21.9652,21.5721 l -13.2396,25.4051 l -3.9510,26.2653 l 4.9464,24.1442 l 12.5447,19.3291 l 18.0710,12.3742 l 20.9640,4.0460 l 20.9286,-4.7533 l 17.9652,-13.0744 l 12.3695,-20.0152 l 4.7036,-24.8094 l -4.2590,-26.9030 l -13.6097,-26.0088 l -22.3938,-22.1358 l -29.7043,-15.5888 l -34.7716,-6.9396 l -37.0386,3.0287 l -36.2166,13.3974 l -32.3138,23.2017 l -25.6353,31.5243 l -16.7542,37.5854 l -6.4559,40.8182 l 4.3375,40.9242 l 14.6570,37.9024 l 23.5802,32.0491 l 30.3213,23.9290 l 34.3067,14.3200 l 35.2303,4.1374 l 33.0830,-5.6560 l 28.1524,-14.1430 l 20.9939,-20.5423 l 12.3759,-24.2835 l 3.2036,-25.0631 l -5.5700,-22.8734 l -13.0383,-18.0023 l -18.4297,-11.0048 l -21.1842,-2.6476 l -21.0081,6.1666 l -17.9032,14.4887 l -12.1666,21.4162 l -4.3619,26.1832 l 4.7362,28.2357 l 14.2175,27.2873 l 23.1262,23.3472 l 30.5541,16.7211 l 35.7301,7.9813 l 38.0963,-2.0879 l 37.3630,-12.5669 l 33.5374,-22.4897 l 26.9239,-30.9381 l 18.0948,-37.1307 l 7.8352,-40.4996 l -2.9333,-40.7449 l -13.2419,-37.8642 l -22.1684,-32.1523 l -28.9268,-24.1727 l -32.9435,-14.7017 l -33.9120,-4.6533 l -31.8228,5.0110 l -26.9629,13.3755 l -19.8870,19.6599 l -11.3626,23.2949 l -2.2940,23.9783 l 6.3668,21.7032 l 13.7142,16.7585 l 18.9781,9.6997 l 21.5996,1.2943 l 21.2863,-7.5547 l 18.0414,-15.8975 l 12.1635,-22.8318 l 4.2174,-27.5914 l -5.0205,-29.6225 l -14.6389,-28.6387 l -23.6804,-24.6498 l -31.2355,-17.9619 l -36.5320,-9.1479 l -39.0107,1.0072 l -38.3806,11.5829 l -34.6482,21.6122 l -28.1168,30.1758 l -19.3579,36.4914 l -9.1558,39.9896 l 1.5684,40.3693 l 11.8463,37.6267 l 20.7561,32.0553 l 27.5119,24.2172 l 31.5401,14.8873 l 32.5342,4.9780 l 30.4842,-4.5504 l 25.6770,-12.7836 l 18.6666,-18.9425 l 10.2199,-22.4593 l 1.2405,-23.0328 l -7.3207,-20.6572 l -14.5589,-15.6225 l -19.7052,-8.4851 l -22.2017,-0.0132 l -21.7576,8.8895 l -18.3770,17.2728 l -12.3601,24.2337 l -4.2731,29.0059 l 5.1063,31.0355 l 14.8653,30.0361 l 24.0452,26.0177 l 31.7350,19.2865 l 37.1612,10.4160 l 39.7634,0.1917 l 39.2493,-10.4651 l 35.6241,-20.5867 l 29.1902,-29.2529 l 20.5180,-35.6803 l 10.3911,-39.2983 "/></g></svg>