<?xml version="1.0" encoding="UTF-8"?>
<!DOCTYPE svg PUBLIC "-//W3C//DTD SVG 1.1//EN"
    "http://www.w3.org/Graphics/SVG/1.1/DTD/svg11.dtd"><svg xmlns="http://www.w3.org/2000/svg" height="800.0000" stroke-opacity="1" viewBox="0 0 800 800" font-size="1" width="800.0000" xmlns:xlink="http://www.w3.org/1999/xlink" stroke="rgb(0,0,0)" version="1.1"><defs></defs><g stroke-linejoin="miter" stroke-opacity="1.0" fill-opacity="0.0" stroke="rgb(0,0,0)" stroke-width="3.1994058032461385" fill="rgb(0,0,0)" stroke-linecap="butt" stroke-miterlimit="10.0"><path d="M 799.8515,399.7806 l -10.7991,-81.8550 l -31.4280,-75.5992 l -49.2434,-63.6826 l -62.6738,-47.2365 l -70.5723,-27.8190 l -72.3278,-7.2622 l -67.9228,12.5058 l -57.9335,29.6494 l -43.4723,42.6037 l -26.0773,50.2267 l -7.5604,51.9100 l 10.1708,47.6367 l 25.3008,37.9819 l 36.2849,24.0545 l 42.0010,7.3873 l 41.8595,-10.2150 l 35.8619,-26.8540 l 24.6003,-40.7252 l 9.2000,-50.2963 l -8.7919,-54.4594 l -27.5571,-52.6404 l -45.1858,-44.8576 l -59.8634,-31.7210 l -70.0498,-14.3744 l -74.6308,5.6153 l -73.0282,26.4102 l -65.2580,46.0800 l -51.9302,62.7898 l -34.1905,74.9792 l -13.6097,81.5138 l 7.9684,81.7961 l 28.6056,75.8233 l 46.4575,64.1872 l 59.9521,48.0168 l 67.9422,28.8671 l 69.8155,8.5676 l 65.5533,-10.9561 l 55.7306,-27.8709 l 41.4580,-40.6141 l 24.2716,-48.0460 l 5.9814,-49.5599 l -11.5072,-45.1407 l -26.3814,-35.3650 l -37.0989,-21.3428 l -42.5401,-4.6079 l -42.1184,13.0344 l -35.8380,29.6851 l -24.2940,43.5398 l -8.6142,53.0663 l 9.6513,57.1570 l 28.6816,55.2388 l 46.5640,47.3307 l 61.4816,34.0442 l 71.8919,16.5245 l 76.6783,-3.6599 l 75.2607,-24.6690 l 67.6532,-44.5704 l 54.4642,-61.5268 l 36.8379,-73.9755 l 16.3440,-80.7794 l -5.1744,-81.3384 l -25.7799,-75.6467 l -43.6283,-64.2937 l -57.1477,-48.4052 l -65.1905,-29.5335 l -67.1440,-9.5054 l -62.9889,9.7563 l -53.2988,26.4211 l -39.1830,38.9287 l -22.1763,46.1419 l -4.0867,47.4561 l 13.1825,42.8583 l 27.8204,32.9267 l 38.2873,18.7731 l 43.4661,1.9323 l 42.7727,-15.7890 l 36.2140,-32.4913 l 24.3880,-46.3695 l 8.4251,-55.8912 l -10.1214,-59.9490 l -29.4280,-57.9698 l -47.5794,-49.9736 l -62.7558,-36.5725 l -73.4122,-18.9129 l -78.4294,1.4352 l -77.2251,22.6302 l -69.8114,42.7378 l -56.7945,59.9189 l -39.3171,72.6082 l -18.9474,79.6665 l 2.4730,80.4909 l 23.0074,75.0732 l 40.8123,63.9998 l 54.3164,48.3939 l 62.3723,29.8049 l 64.3670,10.0569 l 60.2808,-8.9304 l 50.6866,-25.3289 l 36.6930,-37.5813 l 19.8332,-44.5526 l 1.9140,-45.6408 l -15.1631,-40.8352 l -29.5892,-30.7160 l -39.8265,-16.3968 l -44.7604,0.5858 l -43.8091,18.4237 l -36.9822,35.2163 l -24.8803,49.1576 l -8.6367,58.7146 l 10.1928,62.7793 l 29.7817,60.7789 l 48.2117,52.7334 l 63.6605,39.2554 l 74.5801,21.4921 l 79.8490,1.0145 l 78.8822,-20.3345 l 71.6893,-40.6190 l 58.8746,-57.9982 l 41.5786,-70.9048 l 21.3676,-78.1973 l 0.0818,-79.2707 l -20.3435,-74.1142 l -38.0660,-63.3115 l -51.5151,-47.9832 l -59.5440,-29.6759 l -61.5400,-10.2109 l -57.4832,8.4949 l -47.9465,24.6163 l -34.0377,36.5987 l -17.2893,43.3098 l 0.4932,44.1503 l 17.4094,39.1118 l 31.6522,28.7769 l 41.6857,14.2615 l 46.3970,-2.8960 l 45.2070,-20.8858 l 38.1273,-37.8057 l 25.7611,-51.8483 l 9.2445,-61.4798 l -9.8641,-65.5914 l -29.7353,-63.6098 l -48.4482,-55.5547 l -64.1775,-42.0390 l -75.3724,-24.2102 l -80.9087,-3.6399 l -80.1987,17.8280 l -73.2495,38.2565 l -60.6629,55.8032 l -43.5770,68.8993 l -23.5563,76.4013 l -2.4389,77.7022 l 17.8416,72.7888 l 35.4444,62.2425 l 48.7998,47.1813 l 56.7622,29.1491 l 58.7195,9.9644 l 54.6522,-8.4586 l 45.1333,-24.2975 l 31.2704,-36.0006 l 14.5954,-42.4385 l -3.0866,-43.0144 l -19.8765,-37.7227 l -33.9682,-27.1484 l -43.8275,-12.4099 l -48.3434,4.9522 l -46.9383,23.1260 l -39.6263,40.2075 l -27.0129,54.3878 l -10.2365,64.1316 l 9.1418,68.3290 l 29.2899,66.4058 l 48.2842,58.3812 l 64.2964,44.8678 l 75.7732,27.0129 l 81.5873,6.3886 l 81.1483,-15.1607 l 74.4607,-35.6973 l 62.1235,-53.3778 l 45.2725,-66.6318 l 25.4696,-74.3144 l 4.5510,-75.8167 l -15.5518,-71.1236 l -32.9998,-60.8143 l -46.2249,-46.0042 l -54.0825,-28.2350 l -55.9620,-9.3224 l -51.8444,8.8221 l -42.3032,24.3790 l -28.4463,35.7991 l -11.8056,41.9560 l 5.8143,42.2558 l 22.5148,36.6956 l 36.4909,25.8631 l 46.2093,10.8791 l 50.5604,-6.7131 l 48.9684,-25.0995 l 41.4493,-42.3738 l 28.6105,-56.7252 l 11.5927,-66.6168 l -8.0404,-70.9372 l -28.4544,-69.1109 l -47.7229,-61.1563 l -64.0150,-47.6850 l -75.7745,-29.8442 l -81.8712,-9.2056 l -81.7120,12.3862 l -75.2986,32.9929 l -63.2272,50.7705 l -46.6309,64.1477 l -27.0693,71.9784 l -6.3759,73.6521 l 13.5200,69.1520 l 30.7812,59.0553 l 43.8418,44.4755 l 51.5588,26.9519 l 53.3227,8.2976 l 49.1160,-9.5783 l 39.5130,-24.8589 l 25.6220,-35.9981 l 8.9756,-41.8721 l -8.6218,-41.8898 l -25.2717,-36.0511 l -39.1697,-24.9466 l -48.7832,-9.6997 l -53.0037,8.1435 l -51.2567,26.7667 l -43.5598,44.2611 l -30.5220,58.8138 l -13.2861,68.8858 l 6.5820,73.3639 l 27.2456,71.6711 l 46.7757,63.8244 l 63.3389,50.4343 l 75.3762,32.6472 l 81.7547,12.0345 l 81.8786,-9.5598 l 75.7464,-30.1973 l 63.9519,-48.0336 l 47.6253,-61.4968 l 28.3233,-69.4400 l 7.8770,-71.2516 l -11.7866,-66.9133 l -28.8330,-57.0009 l -41.6983,-42.6259 l -49.2413,-25.3254 l -50.8544,-6.9107 l -46.5216,10.7119 l -36.8184,25.7279 l -22.8542,36.5937 l -6.1621,42.1884 l 11.4528,41.9236 l 28.0920,35.8021 l 41.9510,24.4173 l 51.4978,8.8954 l 55.6244,-9.2148 l 53.7574,-28.0943 l 45.9154,-45.8318 l 32.7091,-60.6118 l 15.2828,-70.8931 l -4.7957,-75.5605 l -25.6875,-74.0351 l -45.4614,-66.3321 l -62.2815,-53.0607 l -74.5863,-35.3661 l -81.2402,-14.8186 l -81.6446,6.7383 l -75.7953,27.3665 l -64.2831,45.2218 l -48.2356,58.7321 l -29.2065,66.7501 l -9.0244,68.6632 l 10.3866,64.4525 l 27.1943,54.6921 l 39.8372,40.4922 l 47.1765,23.3882 l 48.6066,5.1893 l 44.1131,-12.2003 l 34.2733,-26.9684 l 20.1980,-37.5740 l 3.4214,-42.8985 l -14.2508,-42.3566 l -30.9192,-35.9536 l -44.7792,-24.2858 l -54.2987,-8.4822 l -58.3701,9.9056 l -56.4204,29.0557 l -48.4691,47.0542 l -35.1280,62.0831 l -17.5428,72.5986 l 2.7173,77.4831 l 23.8114,76.1555 l 43.8063,68.6292 l 60.8641,55.5116 l 73.4206,37.9462 l 80.3380,17.5022 l 81.0147,-3.9780 l 75.4442,-24.5571 l 64.2142,-42.3914 l 48.4496,-55.9090 l 29.7013,-63.9624 l 9.7951,-65.9389 l -9.3478,-61.8186 l -25.8978,-52.1752 l -38.2959,-38.1173 l -45.4058,-21.1790 l -46.6242,-3.1679 l -41.9388,14.0136 l -31.9289,28.5556 l -17.7068,38.9192 l -0.8083,43.9884 l 16.9596,43.1801 l 33.6967,36.5026 l 47.5977,24.5547 l 57.1299,8.4684 l 61.1858,-10.2019 l 59.1925,-29.6317 l 51.1698,-47.9041 l 37.7303,-63.1983 l 20.0208,-73.9680 l -0.3883,-79.0931 l -21.6548,-77.9900 l -41.8437,-70.6698 l -59.1150,-57.7379 l -71.9025,-40.3361 l -79.0660,-20.0317 l -80.0017,1.3342 l -74.7001,21.8254 l -63.7466,39.5990 l -48.2631,53.0839 l -29.7978,61.1328 l -10.1735,63.1331 l 8.6911,59.0646 l 24.9694,49.5004 l 37.1052,35.5486 l 43.9646,18.7421 l 44.9469,0.8870 l 40.0422,-16.1157 l 29.8318,-30.4578 l 15.4303,-40.6026 l -1.6249,-45.4360 l -19.5251,-44.3777 l -36.3690,-37.4380 l -50.3500,-25.2187 l -59.9348,-8.8543 l -64.0151,10.0980 l -62.0180,29.8107 l -53.9634,48.3643 l -40.4640,63.9351 l -22.6672,74.9741 l -2.1445,80.3583 l 19.2610,79.5018 l 39.6128,72.4130 l 57.0692,59.6951 l 70.0623,42.4877 l 77.4499,22.3563 l 78.6257,1.1402 l 73.5780,-19.2260 l 62.8896,-36.9006 l 47.6797,-50.3134 l 29.4940,-58.3179 l 10.1522,-60.3019 l -8.4297,-56.2455 l -24.4278,-46.7215 l -36.2888,-32.8376 l -42.8817,-16.1261 l -43.6082,1.6078 l -38.4611,18.4644 l -28.0242,32.6369 l -13.4142,42.5903 l 3.8294,47.2126 l 21.8960,45.9252 l 38.8825,38.7412 l 52.9810,26.2644 l 62.6571,9.6322 l 66.8015,-9.5958 l 64.8406,-29.5892 l 56.7940,-48.4257 l 43.2743,-64.2788 l 25.4292,-75.5966 l 4.8305,-81.2534 l -16.6778,-80.6606 l -37.1581,-73.8239 l -54.7677,-61.3441 l -67.9369,-44.3582 l -75.5218,-24.4296 l -76.9142,-3.3956 l -72.1003,16.8110 l -61.6604,34.3501 l -46.7113,47.6529 l -28.7959,55.5741 l -9.7316,57.5021 l 8.5687,53.4176 l 24.2838,43.8939 l 35.8633,30.0385 l 42.1788,13.3835 l 42.6350,-4.2665 l 37.2274,-21.0127 l 26.5422,-35.0493 l 11.6988,-44.8427 l -5.7611,-49.2825 l -24.0247,-47.7919 l -41.1869,-40.3860 l -55.4381,-27.6710 l -65.2423,-10.7864 l -69.4891,8.7054 l -67.6037,28.9716 l -59.6049,48.0870 l -46.1050,64.2224 l -28.2514,75.8231 l -7.6159,81.7606 l 13.9569,81.4433 l 34.5289,74.8743 l 52.2565,62.6517 l 65.5688,45.9100 l 73.3205,26.2101 l 74.9016,5.3870 l 70.2966,-14.6287 l 60.0835,-31.9986 l 45.3771,-45.1558 l 27.7177,-52.9562 l 8.9201,-54.7896 l -9.1053,-50.6377 l -24.5403,-41.0743 l -35.8369,-27.2074 l -41.8700,-10.5691 l -42.0468,7.0360 l -36.3656,23.7096 l -25.4155,37.6467 l -10.3184,47.3146 l 7.3814,51.6042 l 25.8687,49.9403 l 43.2362,42.3396 l 57.6722,29.4102 l 67.6389,12.2939 l 72.0242,-7.4447 l 70.2519,-27.9703 l 62.3399,-47.3551 l 48.8994,-63.7672 l 31.0773,-75.6491 l 10.4451,-81.8696 l -11.1527,-81.8341 l -31.7778,-75.5432 l -49.5859,-63.5919 l -63.0055,-47.1121 l -70.8899,-27.6621 l -72.6282,-7.0744 l -68.2029,12.7227 l -58.1906,29.8932 l -43.7038,42.8719 l -26.2808,50.5167 l -7.7339,52.2188 l 10.0289,47.9613 l 25.1921,38.3191 l 36.2104,24.4009 l 41.9614,7.7394 l 41.8552,-9.8608 l 35.8930,-26.5011 l 24.6666,-40.3771 l 9.3006,-49.9566 l -8.6578,-54.1314 l -27.3910,-52.3275 l -44.9892,-44.5628 l -59.6384,-31.4473 l -69.7987,-14.1246 l -74.3559,5.8389 l -72.7324,26.6052 l -64.9442,46.2445 l -51.6016,62.9221 l -33.8503,75.0780 l -13.2613,81.5782 l 8.3215,81.8254 l 28.9599,75.8171 l 46.8094,64.1458 l 60.2981,47.9404 l 68.2788,28.7565 l 70.1393,8.4241 l 65.8612,-11.1313 l 56.0195,-28.0760 l 41.7250,-40.8470 l 24.5140,-48.3043 l 6.1968,-49.8411 l -11.3210,-45.4421 l -26.2262,-35.6835 l -36.9762,-21.6752 l -42.4512,-4.9508 l -42.0642,12.6843 l -35.8191,29.3314 l -24.3105,43.1859 l -8.6659,52.7158 l 9.5648,56.8134 l 28.5613,54.9056 l 46.4110,47.0112 l 61.2975,33.7415 l 71.6785,16.2417 l 76.4377,-3.9200 l 74.9953,-24.9038 l 67.3658,-44.7774 l 54.1575,-61.7042 l 36.5150,-74.1213 l 16.0082,-80.8923 l -5.5198,-81.4172 l -26.1314,-75.6907 l -43.9825,-64.3023 l -57.5009,-48.3784 l -65.5393,-29.4716 l -67.4849,-9.4090 l -63.3184,9.8863 l -53.6137,26.5833 l -39.4802,39.1216 l -22.4527,46.3635 l -4.3396,47.7042 l 12.9556,43.1304 l 27.6218,33.2201 l 38.1190,19.0848 l 43.3297,2.2593 l 42.6696,-15.4501 l 36.1453,-32.1438 l 24.3543,-46.0168 l 8.4269,-55.5370 l -10.0843,-59.5966 l -29.3560,-57.6230 l -47.4731,-49.6357 l -62.6163,-36.2469 l -73.2408,-18.6029 l -78.2279,1.7266 l -76.9956,22.9000 l -69.5560,42.9834 l -56.5159,60.1378 l -39.0181,72.7982 l -18.6309,79.8257 l 2.8038,80.6177 l 23.3492,75.1663 l 41.1617,64.0583 l 54.6699,48.4172 l 62.7263,29.7929 l 64.7181,10.0095 l 60.6254,-9.0126 l 51.0213,-25.4451 l 37.0144,-37.7303 l 20.1381,-44.7329 l 2.1994,-45.8507 l -14.9001,-41.0725 l -29.3512,-30.9784 l -39.6159,-16.6816 l -44.5792,0.2813 l -43.6592,18.1027 l -36.8652,34.8820 l -24.7972,48.8132 l -8.5884,58.3636 l 10.2058,62.4253 l 29.7592,60.4254 l 48.1541,52.3838 l 63.5683,38.9133 l 74.4542,21.1609 l 79.6907,0.6975 l 78.6930,-20.6340 l 71.4712,-40.8982 l 58.6297,-58.2542 l 41.3094,-71.1350 l 21.0767,-78.3996 l -0.2278,-79.4429 l -20.6688,-74.2546 l -38.4037,-63.4187 l -51.8618,-48.0562 l -59.8962,-29.7139 l -61.8942,-10.2135 l -57.8360,8.5276 l -48.2943,24.6841 l -34.3769,36.7008 l -17.6166,43.4453 l 0.1810,44.3178 l 17.1155,39.3096 l 31.3795,29.0031 l 41.4369,14.5137 l 46.1747,-2.6202 l 45.0133,-20.5892 l 37.9642,-37.4912 l 25.6303,-51.5191 l 9.1471,-61.1391 l -9.9269,-65.2427 l -29.7630,-63.2566 l -48.4405,-55.2005 l -64.1345,-41.6874 l -75.2945,-23.8646 l -80.7967,-3.3038 l -80.0537,18.1512 l -73.0730,38.5636 l -60.4566,56.0912 l -43.3430,69.1652 l -23.2968,76.6426 l -2.1566,77.9163 l 18.1438,72.9737 l 35.7635,62.3963 l 49.1327,47.3025 l 57.1055,29.2364 l 59.0698,10.0170 l 55.0060,-8.4412 l 45.4871,-24.3156 l 31.6206,-36.0539 l 14.9386,-42.5264 l -2.7539,-43.1362 l -19.5576,-37.8770 l -33.6664,-27.3339 l -43.5457,-12.6245 l -48.0844,4.7105 l -46.7047,22.8597 l -39.4205,39.9192 l -26.8369,54.0803 l -10.0920,63.8081 l 9.2532,67.9927 l 29.3672,66.0600 l 48.3265,58.0295 l 64.3035,44.5136 l 75.7449,26.6598 l 81.5238,6.0401 l 81.0504,-15.5012 l 74.3292,-36.0263 l 61.9598,-53.6920 l 45.0783,-66.9281 l 25.2468,-74.5899 l 4.3018,-76.0686 l -15.8249,-71.3493 l -33.2940,-61.0116 l -46.5373,-46.1712 l -54.4101,-28.3699 l -56.3014,-9.4239 l -52.1922,8.7550 l -42.6560,24.3469 l -28.8005,35.8024 l -12.1578,41.9947 l 5.4678,42.3294 l 22.1774,36.8034 l 36.1659,26.0041 l 45.9000,11.0518 l 50.2698,-6.5103 l 48.6996,-24.8687 l 41.2049,-42.1174 l 28.3929,-56.4457 l 11.4041,-66.3169 l -8.1981,-70.6200 l -28.5797,-68.7796 l -47.8145,-60.8140 l -64.0720,-47.3353 l -75.7962,-29.4906 l -81.8576,-8.8516 l -81.6631,12.7370 l -75.2149,33.3372 l -63.1095,51.1047 l -46.4805,64.4685 l -26.8876,72.2826 l -6.1647,73.9366 l 13.7584,69.4139 l 31.0446,59.2922 l 44.1276,44.6849 l 51.8640,27.1317 l 53.6444,8.4460 l 49.4509,-9.4627 l 39.8577,-24.7774 l 25.9732,-35.9514 l 9.3297,-41.8606 l -8.2683,-41.9138 l -24.9224,-36.1102 l -38.8280,-25.0403 l -48.4526,-9.8271 l -52.6875,7.9838 l -50.9580,26.5762 l -43.2816,44.0418 l -30.2671,58.5678 l -13.0571,68.6155 l 6.7829,73.0721 l 27.4164,71.3608 l 46.9146,63.4985 l 63.4446,50.0962 l 75.4476,32.3003 l 81.7912,11.6821 l 81.8797,-9.9141 l 75.7121,-30.5499 l 63.8826,-48.3810 l 47.5216,-61.8356 l 28.1863,-69.7668 l 7.7082,-71.5630 l -11.9858,-67.2063 l -29.0604,-57.2726 l -41.9516,-42.8735 l -49.5181,-25.5465 l -51.1519,-7.1030 l -46.8368,10.5502 l -37.1481,25.5985 l -23.1952,36.4979 l -6.5110,42.1271 l 11.0995,41.8975 l 27.7379,35.8113 l 41.5996,24.4618 l 51.1525,8.9749 l 55.2888,-9.1013 l 53.4348,-27.9479 l 45.6090,-45.6539 l 32.4220,-60.4042 l 15.0179,-70.6579 l -5.0358,-75.3000 l -25.9004,-73.7519 l -45.6449,-66.0291 l -62.4339,-52.7409 l -74.7060,-35.0326 l -81.3260,-14.4749 l -81.6956,7.0888 l -75.8111,27.7204 l -64.2635,45.5755 l -48.1808,59.0821 l -29.1171,67.0929 l -8.9012,68.9954 l 10.5424,64.7706 l 27.3811,54.9931 l 40.0531,40.7731 l 47.4194,23.6461 l 48.8740,5.4217 l 44.4024,-11.9957 l 34.5816,-26.7937 l 20.5221,-37.4310 l 3.7581,-42.7886 l -13.9047,-42.2809 l -30.5673,-35.9128 l -44.4250,-24.2803 l -53.9457,-8.5121 l -58.0219,9.8406 l -56.0804,28.9563 l -48.1407,46.9213 l -34.8145,61.9181 l -17.2473,72.4031 l 2.9917,77.2591 l 24.0621,75.9052 l 44.0308,68.3551 l 61.0601,55.2165 l 73.5862,37.6330 l 80.4714,17.1740 l 81.1148,-4.3178 l 75.5098,-24.9052 l 64.2448,-42.7443 l 48.4447,-56.2632 l 29.6611,-64.3144 l 9.7199,-66.2851 l -9.4572,-62.1556 l -26.0402,-52.4995 l -38.4700,-38.4258 l -45.6099,-21.4686 l -46.8561,-3.4357 l -42.1963,13.7703 l -32.2094,28.3392 l -18.0075,38.7319 l -1.1262,43.8320 l 16.6277,43.0563 l 33.3541,36.4125 l 47.2478,24.4993 l 56.7762,8.4482 l 60.8319,-10.1867 l 58.8418,-29.5812 l 50.8259,-47.8189 l 37.3967,-63.0792 l 19.7007,-73.8162 l -0.6917,-78.9100 l -21.9384,-77.7776 l -42.1046,-70.4302 l -59.3507,-57.4734 l -72.1106,-40.0494 l -79.2445,-19.7256 l -80.1487,1.6565 l -74.8142,22.1608 l -63.8266,39.9441 l -48.3082,53.4353 l -29.8077,61.4870 l -10.1480,63.4864 l 8.7518,59.4136 l 25.0647,49.8417 l 37.2340,35.8786 l 44.1257,19.0576 l 45.1387,1.1848 l 40.2628,-15.8385 l 30.0790,-30.2040 l 15.7016,-40.3747 l -1.3322,-45.2364 l -19.2140,-44.2082 l -36.0425,-37.3005 l -50.0114,-25.1145 l -59.5875,-8.7844 l -63.6626,10.1329 l -61.6638,29.8102 l -53.6110,48.3285 l -40.1169,63.8643 l -22.3289,74.8689 l -1.8184,80.2199 l 19.5717,79.3315 l 39.9049,72.2126 l 57.3398,59.4666 l 70.3088,42.2333 l 77.6697,22.0785 l 78.8167,0.8418 l 73.7383,-19.5419 l 63.0175,-37.2310 l 47.7740,-50.6549 l 29.5537,-58.6671 l 10.1768,-60.6553 l -8.4405,-56.5996 l -24.4740,-47.0727 l -36.3698,-33.1825 l -42.9967,-16.4612 l -43.7561,1.2859 l -38.6404,18.1588 l -28.2331,32.3508 l -13.6506,42.3265 l 3.5678,46.9736 l 21.6118,45.7136 l 38.5787,38.5589 l 52.6605,26.1135 l 62.3231,9.5140 l 66.4574,-9.6801 l 64.4898,-29.6387 l 56.4400,-48.4400 l 42.9207,-64.2577 l 25.0794,-75.5402 l 4.4881,-81.1625 l -17.0094,-80.5359 l -37.4756,-73.6667 l -55.0679,-61.1560 l -68.2169,-44.1411 l -75.7787,-24.1856 l -77.1454,-3.1272 l -72.3035,17.1011 l -61.8336,34.6591 l -46.8528,47.9777 l -28.9044,55.9113 l -9.8058,57.8485 l 8.5294,53.7697 l 24.2799,44.2482 l 35.8947,30.3914 l 42.2453,13.7315 l 42.7360,-3.9270 l 37.3617,-20.6849 l 26.7086,-34.7366 l 11.8956,-44.5481 l -5.5359,-49.0090 l -23.7733,-47.5423 l -40.9119,-40.1627 l -55.1422,-27.4763 l -64.9284,-10.6222 l -69.1603,8.8375 l -67.2634,29.0701 l -59.2565,48.1511 l -45.7519,64.2514 l -27.8972,75.8167 l -7.2641,81.7188 l 14.3027,81.3666 l 34.8654,74.7635 l 52.5802,62.5079 l 65.8766,45.7345 l 73.6092,26.0048 l 75.1684,5.1539 l 70.5387,-14.8872 l 60.2987,-32.2801 l 45.5630,-45.4573 l 27.8726,-53.2748 l 9.0425,-55.1221 l -9.0168,-50.9807 l -24.4864,-41.4244 l -35.8183,-27.5612 l -41.8867,-10.9230 l -42.0988,6.6856 l -36.4523,23.3661 l -25.5361,37.3136 l -10.4716,46.9952 l 7.1970,51.3017 l 25.6550,49.6577 l 42.9954,42.0797 l 57.4066,29.1757 l 67.3512,12.0871 l 71.7173,-7.6218 l 69.9289,-28.1158 l 62.0040,-47.4677 l 48.5540,-63.8457 l 30.7257,-75.6927 l 10.0909,-81.8779 l -11.5060,-81.8070 l -32.1266,-75.4810 l -49.9267,-63.4952 l -63.3349,-46.9818 l -71.2047,-27.4996 l -72.9252,-6.8813 l -68.4791,12.9445 l -58.4433,30.1415 l -43.9305,43.1442 l -26.4791,50.8102 l -7.9020,52.5307 l 9.8929,48.2884 l 25.0893,38.6581 l 36.1420,24.7485 l 41.9281,8.0921 l 41.8573,-9.5065 l 35.9304,-26.1488 l 24.7390,-40.0303 l 9.4072,-49.6188 l -8.5180,-53.8059 l -27.2194,-52.0176 l -44.7875,-44.2716 l -59.4087,-31.1777 l -69.5431,-13.8792 l -74.0771,6.0575 l -72.4332,26.7949 l -64.6276,46.4033 l -51.2707,63.0486 l -33.5084,75.1708 l -12.9118,81.6364 l 8.6750,81.8484 l 29.3139,75.8048 l 47.1604,64.0981 l 60.6426,47.8579 l 68.6133,28.6401 l 70.4606,8.2748 l 66.1660,-11.3119 l 56.3047,-28.2861 l 41.9878,-41.0846 l 24.7518,-48.5669 l 6.4072,-50.1262 l -11.1401,-45.7467 l -26.0766,-36.0046 l -36.8595,-22.0097 l -42.3685,-5.2953 l -42.0163,12.3333 l -35.8064,28.9773 l -24.3332,42.8323 l -8.7238,52.3663 l 9.4723,56.4715 l 28.4351,54.5745 l 46.2524,46.6944 l 61.1081,33.4422 l 71.4601,15.9627 l 76.1926,-4.1758 l 74.7259,-25.1338 l 67.0747,-44.9794 l 53.8477,-61.8761 l 36.1897,-74.2615 l 15.6705,-80.9993 l -5.8666,-81.4899 l -26.4837,-75.7284 l -44.3367,-64.3047 l -57.8537,-48.3454 l -65.8870,-29.4035 l -67.8241,-9.3066 l -63.6457,10.0221 l -53.9257,26.7511 l -39.7739,39.3197 l -22.7252,46.5899 l -4.5881,47.9567 l 12.7335,43.4065 l 27.4284,33.5169 l 37.9562,19.3995 l 43.1991,2.5886 l 42.5726,-15.1093 l 36.0828,-31.7951 l 24.3269,-45.6636 l 8.4349,-55.1828 l -10.0410,-59.2450 l -29.2778,-57.2774 l -47.3607,-49.2997 l -62.4710,-35.9238 l -73.0640,-18.2959 l -78.0213,2.0144 l -76.7613,23.1658 l -69.2964,43.2244 l -56.2335,60.3517 l -38.7157,72.9828 l -18.3116,79.9792 l 3.1368,80.7386 l 23.6926,75.2533 l 41.5121,64.1107 l 55.0238,48.4343 l 63.0801,29.7745 l 65.0683,9.9559 l 60.9685,-9.1008 l 51.3539,-25.5672 l 37.3331,-37.8849 l 20.4398,-44.9186 l 2.4810,-46.0656 l -14.6413,-41.3145 l -29.1178,-31.2450 l -39.4103,-16.9702 l -44.4035,-0.0263 l -43.5151,17.7791 l -36.7541,34.5456 l -24.7202,48.4674 l -8.5463,58.0118 l 10.2125,62.0711 l 29.7306,60.0722 l 48.0903,52.0353 l 63.4700,38.5729 l 74.3225,20.8320 l 79.5268,0.3835 l 78.4986,-20.9302 l 71.2482,-41.1734 l 58.3803,-58.5058 l 41.0361,-71.3605 l 20.7823,-78.5966 "/></g></svg>