<?xml version="1.0" encoding="UTF-8"?>
<!DOCTYPE svg PUBLIC "-//W3C//DTD SVG 1.1//EN"
    "http://www.w3.org/Graphics/SVG/1.1/DTD/svg11.dtd"><svg xmlns="http://www.w3.org/2000/svg" height="1000.0000" stroke-opacity="1" viewBox="0 0 1000 1000" font-size="1" width="1000.0000" xmlns:xlink="http://www.w3.org/1999/xlink" stroke="rgb(0,0,0)" version="1.1"><defs></defs><g stroke-linejoin="miter" stroke-opacity="1.0" fill-opacity="0.0" stroke="rgb(0,0,0)" stroke-width="3.9995281624732053" fill="rgb(0,0,0)" stroke-linecap="butt" stroke-miterlimit="10.0"><path d="M 1000.0000,500.0002 l -358.1689,479.4621 l -561.3669,-207.4516 l 39.6918,-597.1545 l 583.8850,-131.3287 l 291.5604,522.6485 l -418.4757,427.8399 l -528.9718,-279.9245 l 118.3771,-586.6479 l 596.1300,-52.8952 l 219.8220,556.6392 l -471.4196,368.6902 l -487.2699,-347.4723 l 194.9796,-565.8197 l 597.8865,26.4690 l 144.2160,580.8362 l -516.0693,303.0535 l -436.9947,-408.9065 l 268.1515,-535.0361 l 589.1236,105.3675 l 66.0727,594.8137 l -551.6390,232.0848 l -379.0309,-463.1463 l 336.6055,-494.8390 l 569.9954,182.4121 l -13.2332,598.3258 l -577.5029,157.0327 l -314.3983,-509.2373 l 399.1371,-445.9355 l 540.8385,256.2472 l -92.3063,591.3108 l -593.2061,79.2178 l -244.2340,-546.3686 l 454.6462,-389.1860 l 502.1658,325.5739 l -169.7553,573.8920 l -598.4721,0.0090 l -169.7726,-573.8869 l 502.1560,-325.5890 l 454.6579,389.1723 l -244.2175,546.3760 l -593.2085,-79.1999 l -92.3241,-591.3080 l 540.8307,-256.2636 l 399.1506,445.9235 l -314.3829,509.2468 l -577.5077,-157.0153 l -13.2513,-598.3254 l 569.9899,-182.4293 l 336.6204,494.8289 l -379.0169,463.1577 l -551.6460,-232.0682 l 66.0547,-594.8157 l 589.1204,-105.3852 l 268.1676,535.0281 l -436.9824,408.9197 l -516.0784,-303.0380 l 144.1985,-580.8405 l 597.8857,-26.4870 l 194.9966,565.8138 l -487.2594,347.4870 l -471.4307,-368.6759 l 219.8052,-556.6458 l 596.1316,52.8772 l 118.3948,586.6443 l -528.9634,279.9404 l -418.4886,-427.8273 l 291.5446,-522.6573 l 583.8889,131.3111 l 39.7098,597.1533 l -561.3606,207.4685 l -358.1834,-479.4513 l 358.1545,-479.4729 l 561.3731,207.4347 l -39.6738,597.1557 l -583.8810,131.3463 l -291.5761,-522.6397 l 418.4628,-427.8526 l 528.9803,279.9085 l -118.3594,586.6515 l -596.1284,52.9132 l -219.8388,-556.6326 l 471.4085,-368.7044 l 487.2803,347.4576 l -194.9625,565.8255 l -597.8873,-26.4510 l -144.2335,-580.8318 l 516.0601,-303.0691 l 437.0070,408.8933 l -268.1354,535.0442 l -589.1268,-105.3497 l -66.0906,-594.8117 l 551.6320,-232.1014 l 379.0448,463.1349 l -336.5906,494.8492 l -570.0009,-182.3949 l 13.2152,-598.3262 l 577.4982,-157.0502 l 314.4136,509.2278 l -399.1237,445.9475 l -540.8462,-256.2309 l 92.2885,-591.3136 l 593.2037,-79.2357 l 244.2505,546.3613 l -454.6345,389.1997 l -502.1757,-325.5588 l 169.7380,-573.8971 l 598.4721,-0.0271 l 169.7899,573.8818 l -502.1462,325.6042 l -454.6697,-389.1586 l 244.2010,-546.3833 l 593.2109,79.1820 l 92.3419,591.3052 l -540.8230,256.2799 l -399.1640,-445.9114 l 314.3676,-509.2563 l 577.5124,156.9979 l 13.2693,598.3250 l -569.9844,182.4464 l -336.6353,-494.8187 l 379.0030,-463.1692 l 551.6530,232.0516 l -66.0368,594.8177 l -589.1172,105.4030 l -268.1838,-535.0200 l 436.9700,-408.9329 l 516.0875,303.0224 l -144.1810,580.8449 l -597.8849,26.5050 l -195.0137,-565.8079 l 487.2489,-347.5017 l 471.4419,368.6617 l -219.7885,556.6524 l -596.1332,-52.8592 l -118.4124,-586.6408 l 528.9550,-279.9564 l 418.5015,427.8147 l -291.5289,522.6661 l -583.8929,-131.2935 l -39.7278,-597.1521 l 561.3543,-207.4854 l 358.1978,479.4405 l -358.1400,479.4837 l -561.3794,-207.4177 l 39.6558,-597.1569 l 583.8771,-131.3639 l 291.5919,522.6309 l -418.4499,427.8652 l -528.9887,-279.8926 l 118.3417,-586.6551 l 596.1268,-52.9311 l 219.8556,556.6259 l -471.3974,368.7186 l -487.2908,-347.4429 l 194.9455,-565.8314 l 597.8881,26.4330 l 144.2511,580.8275 l -516.0510,303.0846 l -437.0194,-408.8802 l 268.1193,-535.0523 l 589.1299,105.3320 l 66.1085,594.8097 l -551.6250,232.1181 l -379.0588,-463.1235 l 336.5757,-494.8593 l 570.0064,182.3777 l -13.1972,598.3266 l -577.4935,157.0676 l -314.4290,-509.2184 l 399.1102,-445.9595 l 540.8539,256.2146 l -92.2706,591.3164 l -593.2013,79.2535 l -244.2669,-546.3539 l 454.6227,-389.2134 l 502.1855,325.5436 l -169.7207,573.9023 l -598.4721,0.0451 l -169.8072,-573.8767 l 502.1364,-325.6193 l 454.6814,389.1449 l -244.1846,546.3907 l -593.2132,-79.1641 l -92.3598,-591.3024 l 540.8153,-256.2962 l 399.1775,445.8994 l -314.3522,509.2657 l -577.5171,-156.9805 l -13.2873,-598.3246 l 569.9789,-182.4636 l 336.6503,494.8086 l -378.9890,463.1806 l -551.6599,-232.0349 l 66.0189,-594.8197 l 589.1141,-105.4208 l 268.1999,535.0119 l -436.9577,408.9460 l -516.0967,-303.0068 l 144.1635,-580.8492 l 597.8841,-26.5231 l 195.0307,565.8020 l -487.2384,347.5163 l -471.4530,-368.6475 l 219.7717,-556.6591 l 596.1348,52.8413 l 118.4301,586.6372 l -528.9465,279.9723 l -418.5144,-427.8021 l 291.5131,-522.6749 l 583.8969,131.2759 l 39.7458,597.1509 l -561.3481,207.5023 l -358.2123,-479.4297 l 358.1255,-479.4945 l 561.3856,207.4008 l -39.6378,597.1581 l -583.8731,131.3815 l -291.6076,-522.6221 l 418.4370,-427.8778 l 528.9971,279.8766 l -118.3240,586.6586 l -596.1252,52.9491 l -219.8724,-556.6193 l 471.3863,-368.7328 l 487.3013,347.4282 l -194.9284,565.8373 l -597.8889,-26.4149 l -144.2686,-580.8231 l 516.0418,-303.1002 l 437.0317,408.8670 l -268.1031,535.0604 l -589.1331,-105.3142 l -66.1264,-594.8077 l 551.6180,-232.1347 l 379.0728,463.1120 l -336.5608,494.8694 l -570.0119,-182.3605 l 13.1791,-598.3270 l 577.4887,-157.0850 l 314.4443,509.2089 l -399.0968,445.9716 l -540.8616,-256.1983 l 92.2528,-591.3191 l 593.1989,-79.2714 l 244.2834,546.3465 l -454.6110,389.2271 l -502.1953,-325.5285 l 169.7034,-573.9074 l 598.4721,-0.0631 l 169.8245,573.8716 l -502.1266,325.6345 l -454.6931,-389.1312 l 244.1681,-546.3981 l 593.2156,79.1462 l 92.3776,591.2997 l -540.8076,256.3125 l -399.1909,-445.8874 l 314.3368,-509.2752 l 577.5219,156.9631 l 13.3054,598.3242 l -569.9734,182.4808 l -336.6652,-494.7984 l 378.9750,-463.1920 l 551.6669,232.0183 l -66.0009,594.8216 l -589.1109,105.4385 l -268.2160,-535.0038 l 436.9454,-408.9592 l 516.1058,302.9913 l -144.1460,580.8535 l -597.8833,26.5411 l -195.0478,-565.7961 l 487.2280,-347.5310 l 471.4641,368.6333 l -219.7549,556.6657 l -596.1364,-52.8233 l -118.4478,-586.6336 l 528.9381,-279.9883 l 418.5273,427.7895 l -291.4974,522.6837 l -583.9008,-131.2583 l -39.7638,-597.1497 l 561.3418,-207.5193 l 358.2267,479.4189 l -358.1111,479.5053 l -561.3919,-207.3839 l 39.6198,-597.1593 l 583.8691,-131.3991 l 291.6234,522.6133 l -418.4241,427.8904 l -529.0056,-279.8607 l 118.3063,-586.6622 l 596.1236,-52.9671 l 219.8891,556.6127 l -471.3752,368.7470 l -487.3118,-347.4135 l 194.9113,-565.8432 l 597.8897,26.3969 l 144.2861,580.8188 l -516.0327,303.1157 l -437.0440,-408.8538 l 268.0870,-535.0685 l 589.1363,105.2964 l 66.1444,594.8057 l -551.6110,232.1513 l -379.0867,-463.1006 l 336.5458,-494.8796 l 570.0174,182.3433 l -13.1611,598.3274 l -577.4840,157.1024 l -314.4597,-509.1994 l 399.0834,-445.9836 l 540.8694,256.1820 l -92.2350,591.3219 l -593.1965,79.2893 l -244.2999,-546.3392 l 454.5993,-389.2408 l 502.2051,325.5134 l -169.6861,573.9125 l -598.4721,0.0812 l -169.8418,-573.8664 l 502.1168,-325.6496 l 454.7048,389.1175 l -244.1516,546.4054 l -593.2180,-79.1284 l -92.3954,-591.2969 l 540.7998,-256.3288 l 399.2043,445.8753 l -314.3215,509.2847 l -577.5266,-156.9457 l -13.3234,-598.3238 l 569.9679,-182.4980 l 336.6801,494.7883 l -378.9611,463.2034 l -551.6739,-232.0017 l 65.9830,-594.8236 l 589.1077,-105.4563 l 268.2322,534.9957 l -436.9331,408.9724 l -516.1149,-302.9757 l 144.1285,-580.8579 l 597.8825,-26.5591 l 195.0648,565.7903 l -487.2175,347.5457 l -471.4752,-368.6191 l 219.7381,-556.6723 l 596.1380,52.8053 l 118.4655,586.6301 l -528.9296,280.0042 l -418.5402,-427.7769 l 291.4816,-522.6924 l 583.9048,131.2407 l 39.7818,597.1485 l -561.3356,207.5362 l -358.2412,-479.4081 l 358.0966,-479.5161 l 561.3981,207.3670 l -39.6018,597.1605 l -583.8652,131.4167 l -291.6391,-522.6046 l 418.4112,-427.9030 l 529.0140,279.8447 l -118.2886,586.6658 l -596.1220,52.9850 l -219.9059,-556.6061 l 471.3641,-368.7612 l 487.3222,347.3988 l -194.8943,565.8490 l -597.8905,-26.3789 l -144.3036,-580.8144 l 516.0236,-303.1313 l 437.0563,408.8406 l -268.0709,535.0766 l -589.1395,-105.2787 l -66.1623,-594.8037 l 551.6040,-232.1680 l 379.1007,463.0892 l -336.5309,494.8897 l -570.0229,-182.3262 l 13.1430,-598.3278 l 577.4792,-157.1198 l 314.4750,509.1899 l -399.0699,445.9956 l -540.8771,-256.1657 l 92.2172,-591.3247 l 593.1941,-79.3072 l 244.3163,546.3318 l -454.5875,389.2545 l -502.2149,-325.4982 l 169.6688,-573.9176 l 598.4721,-0.0992 l 169.8591,573.8613 l -502.1070,325.6647 l -454.7166,-389.1038 l 244.1352,-546.4128 l 593.2204,79.1105 l 92.4132,591.2941 l -540.7921,256.3451 l -399.2178,-445.8633 l 314.3061,-509.2942 l 577.5313,156.9283 l 13.3414,598.3234 l -569.9624,182.5152 l -336.6950,-494.7781 l 378.9471,-463.2148 l 551.6809,231.9850 l -65.9651,594.8256 l -589.1045,105.4740 l -268.2483,-534.9876 l 436.9207,-408.9855 l 516.1241,302.9602 l -144.1110,580.8622 l -597.8817,26.5771 l -195.0819,-565.7844 l 487.2070,-347.5604 l 471.4863,368.6049 l -219.7213,556.6789 l -596.1396,-52.7874 l -118.4832,-586.6265 l 528.9212,-280.0201 l 418.5531,427.7642 l -291.4658,522.7012 l -583.9087,-131.2231 l -39.7998,-597.1473 l 561.3293,-207.5531 l 358.2556,479.3973 l -358.0822,479.5269 l -561.4044,-207.3500 l 39.5838,-597.1616 l 583.8612,-131.4343 l 291.6549,522.5958 l -418.3983,427.9156 l -529.0224,-279.8288 l 118.2710,-586.6693 l 596.1204,-53.0030 l 219.9227,556.5994 l -471.3529,368.7754 l -487.3327,-347.3841 l 194.8772,-565.8549 l 597.8913,26.3609 l 144.3211,580.8101 l -516.0144,303.1468 l -437.0687,-408.8275 l 268.0547,-535.0846 l 589.1426,105.2609 l 66.1802,594.8017 l -551.5970,232.1846 l -379.1146,-463.0777 l 336.5160,-494.8999 l 570.0284,182.3090 l -13.1250,598.3282 l -577.4745,157.1372 l -314.4904,-509.1804 l 399.0565,-446.0077 l 540.8848,256.1494 l -92.1993,591.3275 l -593.1917,79.3251 l -244.3328,-546.3244 l 454.5758,-389.2682 l 502.2247,325.4831 l -169.6515,573.9227 l -598.4721,0.1173 l -169.8764,-573.8562 l 502.0971,-325.6799 l 454.7283,389.0901 l -244.1187,546.4201 l -593.2228,-79.0926 l -92.4311,-591.2913 l 540.7844,-256.3614 l 399.2312,445.8513 l -314.2908,509.3036 l -577.5360,-156.9109 l -13.3595,-598.3230 l 569.9569,-182.5323 l 336.7099,494.7680 l -378.9331,463.2263 l -551.6879,-231.9684 l 65.9471,-594.8276 l 589.1013,-105.4918 l 268.2644,534.9795 l -436.9084,408.9987 l -516.1332,-302.9446 l 144.0935,-580.8666 l 597.8809,-26.5952 l 195.0990,565.7785 l -487.1965,347.5751 l -471.4974,-368.5907 l 219.7046,-556.6856 l 596.1412,52.7694 l 118.5009,586.6229 l -528.9127,280.0361 l -418.5660,-427.7516 l 291.4501,-522.7100 l 583.9127,131.2055 l 39.8178,597.1461 l -561.3231,207.5700 l -358.2701,-479.3865 l 358.0677,-479.5377 l 561.4106,207.3331 l -39.5658,597.1628 l -583.8573,131.4519 l -291.6707,-522.5870 l 418.3854,-427.9282 l 529.0309,279.8129 l -118.2533,586.6729 l -596.1189,53.0210 l -219.9395,-556.5928 l 471.3418,-368.7896 l 487.3432,347.3694 l -194.8602,565.8608 l -597.8921,-26.3428 l -144.3386,-580.8057 l 516.0053,-303.1624 l 437.0810,408.8143 l -268.0386,535.0927 l -589.1458,-105.2432 l -66.1982,-594.7997 l 551.5900,-232.2012 l 379.1286,463.0663 l -336.5011,494.9100 l -570.0339,-182.2918 l 13.1070,-598.3286 l 577.4698,-157.1546 l 314.5057,509.1710 l -399.0430,446.0197 l -540.8925,-256.1331 l 92.1815,-591.3303 l 593.1893,-79.3429 l 244.3493,546.3171 l -454.5641,389.2819 l -502.2345,-325.4679 l 169.6342,-573.9278 l 598.4721,-0.1353 l 169.8937,573.8511 l -502.0873,325.6950 l -454.7400,-389.0764 l 244.1022,-546.4275 l 593.2252,79.0747 l 92.4489,591.2885 l -540.7767,256.3777 l -399.2447,-445.8392 l 314.2754,-509.3131 l 577.5408,156.8935 l 13.3775,598.3226 l -569.9514,182.5495 l -336.7248,-494.7578 l 378.9192,-463.2377 l 551.6949,231.9518 l -65.9292,594.8296 l -589.0982,105.5095 l -268.2805,-534.9715 l 436.8961,-409.0119 l 516.1423,302.9290 l -144.0760,580.8709 l -597.8801,26.6132 l -195.1160,-565.7726 l 487.1861,-347.5898 l 471.5085,368.5765 l -219.6878,556.6922 l -596.1428,-52.7514 l -118.5185,-586.6194 l 528.9043,-280.0520 l 418.5788,427.7390 l -291.4343,522.7188 l -583.9166,-131.1879 l -39.8358,-597.1449 l 561.3168,-207.5870 l 358.2845,479.3757 l -358.0533,479.5485 l -561.4169,-207.3162 l 39.5478,-597.1640 l 583.8533,-131.4695 l 291.6864,522.5782 l -418.3725,427.9408 l -529.0393,-279.7969 l 118.2356,-586.6764 l 596.1173,-53.0389 l 219.9562,556.5862 l -471.3307,368.8038 l -487.3536,-347.3548 l 194.8431,-565.8667 l 597.8929,26.3248 l 144.3561,580.8014 l -515.9962,303.1780 l -437.0933,-408.8011 l 268.0225,-535.1008 l 589.1490,105.2254 l 66.2161,594.7977 l -551.5830,232.2178 l -379.1426,-463.0549 l 336.4862,-494.9202 l 570.0394,182.2746 l -13.0889,598.3290 l -577.4650,157.1720 l -314.5210,-509.1615 l 399.0296,-446.0317 l 540.9003,256.1168 l -92.1637,591.3330 l -593.1870,79.3608 l -244.3657,-546.3097 l 454.5523,-389.2956 l 502.2443,325.4528 l -169.6169,573.9329 l -598.4721,0.1533 l -169.9110,-573.8459 l 502.0775,-325.7101 l 454.7518,389.0627 l -244.0857,546.4349 l -593.2275,-79.0568 l -92.4667,-591.2857 l 540.7689,-256.3940 l 399.2581,445.8272 l -314.2601,509.3226 l -577.5455,-156.8761 l -13.3956,-598.3222 l 569.9459,-182.5667 l 336.7397,494.7477 l -378.9052,463.2491 l -551.7019,-231.9352 l 65.9113,-594.8316 l 589.0950,-105.5273 l 268.2967,534.9634 l -436.8837,409.0251 l -516.1515,-302.9135 l 144.0584,-580.8753 l 597.8793,-26.6312 l 195.1331,565.7667 l -487.1756,347.6045 l -471.5196,-368.5623 l 219.6710,-556.6988 l 596.1444,52.7335 l 118.5362,586.6158 l -528.8959,280.0680 l -418.5917,-427.7264 l 291.4186,-522.7276 l 583.9206,131.1703 l 39.8538,597.1437 l -561.3106,207.6039 l -358.2990,-479.3649 l 358.0388,-479.5593 l 561.4231,207.2993 l -39.5298,597.1652 l -583.8493,131.4871 l -291.7022,-522.5694 l 418.3596,-427.9535 l 529.0478,279.7810 l -118.2179,586.6800 l -596.1157,53.0569 l -219.9730,-556.5795 l 471.3196,-368.8180 l 487.3641,347.3401 l -194.8261,565.8725 l -597.8937,-26.3068 l -144.3736,-580.7970 l 515.9870,-303.1935 l 437.1056,408.7879 l -268.0063,535.1089 l -589.1522,-105.2076 l -66.2340,-594.7957 l 551.5760,-232.2345 l 379.1565,463.0435 l -336.4712,494.9303 l -570.0449,-182.2574 l 13.0709,-598.3294 l 577.4603,-157.1894 l 314.5364,509.1520 l -399.0161,446.0438 l -540.9080,-256.1005 l 92.1459,-591.3358 l 593.1846,-79.3787 l 244.3822,546.3023 l -454.5406,389.3093 l -502.2542,-325.4377 l 169.5996,-573.9381 l 598.4721,-0.1714 l 169.9283,573.8408 l -502.0677,325.7253 l -454.7635,-389.0489 l 244.0693,-546.4422 l 593.2299,79.0390 l 92.4845,591.2829 l -540.7612,256.4103 l -399.2715,-445.8151 l 314.2447,-509.3321 l 577.5502,156.8587 l 13.4136,598.3218 l -569.9404,182.5839 l -336.7547,-494.7375 l 378.8913,-463.2605 l 551.7089,231.9185 l -65.8933,594.8336 l -589.0918,105.5451 l -268.3128,-534.9553 l 436.8714,-409.0382 l 516.1606,302.8979 l -144.0409,580.8796 l -597.8785,26.6492 l -195.1501,-565.7608 l 487.1651,-347.6191 l 471.5308,368.5480 l -219.6542,556.7054 l -596.1459,-52.7155 l -118.5539,-586.6122 l 528.8874,-280.0839 l 418.6046,427.7138 l -291.4028,522.7364 l -583.9245,-131.1527 l -39.8718,-597.1425 l 561.3043,-207.6208 l 358.3134,479.3541 l -358.0244,479.5701 l -561.4294,-207.2824 l 39.5118,-597.1664 l 583.8454,-131.5047 l 291.7179,522.5606 l -418.3467,427.9661 l -529.0562,-279.7650 l 118.2002,-586.6836 l 596.1141,-53.0749 l 219.9898,556.5729 l -471.3085,368.8322 l -487.3746,-347.3254 l 194.8090,-565.8784 l 597.8945,26.2888 l 144.3911,580.7927 l -515.9779,303.2091 l -437.1179,-408.7748 l 267.9902,-535.1170 l 589.1553,105.1899 l 66.2520,594.7937 l -551.5690,232.2511 l -379.1705,-463.0320 l 336.4563,-494.9405 l 570.0503,182.2402 l -13.0529,598.3298 l -577.4556,157.2068 l -314.5517,-509.1425 l 399.0027,-446.0558 l 540.9157,256.0842 l -92.1280,591.3386 l -593.1822,79.3966 l -244.3987,-546.2950 l 454.5288,-389.3230 l 502.2640,325.4225 l -169.5823,573.9432 l -598.4721,0.1894 l -169.9456,-573.8357 l 502.0579,-325.7404 l 454.7752,389.0352 l -244.0528,546.4496 l -593.2323,-79.0211 l -92.5024,-591.2802 l 540.7535,-256.4266 l 399.2850,445.8031 l -314.2294,509.3415 l -577.5550,-156.8412 l -13.4316,-598.3214 l 569.9349,-182.6011 l 336.7696,494.7274 l -378.8773,463.2720 l -551.7159,-231.9019 l 65.8754,-594.8356 l 589.0886,-105.5628 l 268.3289,534.9472 l -436.8591,409.0514 l -516.1697,-302.8824 l 144.0234,-580.8839 l 597.8777,-26.6672 l 195.1672,565.7550 l -487.1546,347.6338 l -471.5419,-368.5338 l 219.6374,-556.7120 l 596.1475,52.6975 l 118.5716,586.6086 l -528.8790,280.0999 l -418.6175,-427.7012 l 291.3871,-522.7451 l 583.9285,131.1351 l 39.8898,597.1413 l -561.2980,207.6377 l -358.3279,-479.3433 l 358.0099,-479.5809 l 561.4356,207.2654 l -39.4938,597.1676 l -583.8414,131.5223 l -291.7337,-522.5518 l 418.3338,-427.9787 l 529.0646,279.7491 l -118.1825,586.6871 l -596.1125,53.0928 l -220.0066,-556.5663 l 471.2974,-368.8465 l 487.3851,347.3107 l -194.7919,565.8843 l -597.8953,-26.2707 l -144.4086,-580.7883 l 515.9687,-303.2246 l 437.1303,408.7616 l -267.9741,535.1250 l -589.1585,-105.1721 l -66.2699,-594.7917 l 551.5620,-232.2677 l 379.1844,463.0206 l -336.4414,494.9506 l -570.0558,-182.2231 l 13.0348,-598.3302 l 577.4508,-157.2242 l 314.5671,509.1330 l -398.9892,446.0678 l -540.9234,-256.0679 l 92.1102,-591.3414 l 593.1798,-79.4145 l 244.4151,546.2876 l -454.5171,389.3367 l -502.2738,-325.4074 l 169.5650,-573.9483 l 598.4721,-0.2075 l 169.9629,573.8306 l -502.0480,325.7555 l -454.7869,-389.0215 l 244.0363,-546.4569 l 593.2347,79.0032 l 92.5202,591.2774 l -540.7457,256.4429 l -399.2984,-445.7911 l 314.2140,-509.3510 l 577.5597,156.8238 l 13.4497,598.3210 l -569.9294,182.6182 l -336.7845,-494.7172 l 378.8633,-463.2834 l 551.7229,231.8853 l -65.8575,594.8375 l -589.0854,105.5806 l -268.3450,-534.9391 l 436.8468,-409.0646 l 516.1788,302.8668 l -144.0059,580.8883 l -597.8769,26.6853 l -195.1842,-565.7491 l 487.1441,-347.6485 l 471.5530,368.5196 l -219.6207,556.7187 l -596.1491,-52.6795 l -118.5893,-586.6051 l 528.8705,-280.1158 l 418.6304,427.6885 l -291.3713,522.7539 l -583.9325,-131.1175 l -39.9078,-597.1401 l 561.2918,-207.6546 l 358.3423,479.3325 l -357.9954,479.5917 l -561.4419,-207.2485 l 39.4758,-597.1688 l 583.8374,-131.5399 l 291.7494,522.5430 l -418.3209,427.9913 l -529.0731,-279.7331 l 118.1649,-586.6907 l 596.1109,-53.1108 l 220.0234,556.5596 l -471.2862,368.8607 l -487.3955,-347.2960 l 194.7749,-565.8901 l 597.8961,26.2527 l 144.4261,580.7840 l -515.9596,303.2402 l -437.1426,-408.7484 l 267.9580,-535.1331 l 589.1617,105.1544 l 66.2878,594.7897 l -551.5550,232.2844 l -379.1984,-463.0092 l 336.4265,-494.9607 l 570.0613,182.2059 l -13.0168,598.3306 l -577.4461,157.2416 l -314.5824,-509.1236 l 398.9758,-446.0798 l 540.9311,256.0516 l -92.0924,591.3441 l -593.1774,79.4324 l -244.4316,-546.2802 l 454.5054,-389.3504 l 502.2836,325.3922 l -169.5477,573.9534 l -598.4721,0.2255 l -169.9801,-573.8255 l 502.0382,-325.7707 l 454.7987,389.0078 l -244.0199,546.4643 l -593.2371,-78.9853 l -92.5380,-591.2746 l 540.7380,-256.4592 l 399.3119,445.7790 l -314.1987,509.3605 l -577.5644,-156.8064 l -13.4677,-598.3206 l 569.9239,-182.6354 l 336.7994,494.7071 l -378.8494,463.2948 l -551.7299,-231.8686 l 65.8396,-594.8395 l 589.0823,-105.5983 l 268.3612,534.9310 l -436.8344,409.0777 l -516.1880,-302.8513 l 143.9884,-580.8926 l 597.8761,-26.7033 l 195.2013,565.7432 l -487.1337,347.6632 l -471.5641,-368.5054 l 219.6039,-556.7253 l 596.1507,52.6616 l 118.6070,586.6015 l -528.8621,280.1317 l -418.6433,-427.6759 l 291.3555,-522.7627 l 583.9364,131.0999 l 39.9258,597.1389 l -561.2855,207.6716 l -358.3568,-479.3217 l 357.9810,-479.6025 l 561.4481,207.2316 l -39.4578,597.1700 l -583.8335,131.5575 l -291.7652,-522.5342 l 418.3080,-428.0039 l 529.0815,279.7172 l -118.1472,586.6943 l -596.1093,53.1288 l -220.0401,-556.5530 l 471.2751,-368.8749 l 487.4060,347.2813 l -194.7578,565.8960 l -597.8969,-26.2347 l -144.4436,-580.7796 l 515.9505,-303.2557 l 437.1549,408.7352 l -267.9418,535.1412 l -589.1648,-105.1366 l -66.3057,-594.7877 l 551.5480,-232.3010 l 379.2123,462.9977 l -336.4116,494.9709 l -570.0668,-182.1887 l 12.9988,-598.3310 l 577.4413,-157.2590 l 314.5978,509.1141 l -398.9623,446.0919 l -540.9388,-256.0353 l 92.0746,-591.3469 l 593.1750,-79.4502 l 244.4481,546.2729 l -454.4936,389.3641 l -502.2934,-325.3771 l 169.5304,-573.9585 l 598.4721,-0.2435 l 169.9974,573.8203 l -502.0284,325.7858 l -454.8104,-388.9941 l 244.0034,-546.4716 l 593.2395,78.9674 l 92.5558,591.2718 l -540.7303,256.4755 l -399.3253,-445.7670 l 314.1833,-509.3700 l 577.5691,156.7890 l 13.4857,598.3202 l -569.9184,182.6526 l -336.8143,-494.6969 l 378.8354,-463.3062 l 551.7369,231.8520 l -65.8216,594.8415 l -589.0791,105.6161 l -268.3773,-534.9229 l 436.8221,-409.0909 l 516.1971,302.8357 l -143.9709,580.8970 l -597.8753,26.7213 l -195.2183,-565.7373 l 487.1232,-347.6779 l 471.5752,368.4912 l -219.5871,556.7319 l -596.1523,-52.6436 l -118.6246,-586.5979 l 528.8536,-280.1477 l 418.6562,427.6633 l -291.3398,522.7715 l -583.9404,-131.0823 l -39.9438,-597.1377 l 561.2793,-207.6885 l 358.3712,479.3109 l -357.9665,479.6132 l -561.4544,-207.2147 l 39.4398,-597.1712 l 583.8295,-131.5751 l 291.7809,522.5254 l -418.2951,428.0165 "/></g></svg>