<?xml version="1.0" encoding="UTF-8"?>
<!DOCTYPE svg PUBLIC "-//W3C//DTD SVG 1.1//EN"
    "http://www.w3.org/Graphics/SVG/1.1/DTD/svg11.dtd"><svg xmlns="http://www.w3.org/2000/svg" height="1000.0000" stroke-opacity="1" viewBox="0 0 1000 1000" font-size="1" width="1000.0000" xmlns:xlink="http://www.w3.org/1999/xlink" stroke="rgb(0,0,0)" version="1.1"><defs></defs><g stroke-linejoin="miter" stroke-opacity="1.0" fill-opacity="0.0" stroke="rgb(0,0,0)" stroke-width="3.9948495840786964" fill="rgb(0,0,0)" stroke-linecap="butt" stroke-miterlimit="10.0"><path d="M 1000.0000,499.4093 l -82.4718,-16.7170 l -127.4426,-150.3919 l -14.3093,-182.3472 l 30.9210,-40.4954 l -97.6212,60.9746 l -204.9065,-17.5790 l -123.6144,-106.8814 l 3.6559,-17.1553 l -34.1163,138.6512 l -159.6765,133.6907 l -138.9365,8.8244 l 21.8217,1.6442 l 84.9211,143.0744 l -18.6434,203.9868 l -74.6459,82.1916 l 49.7699,-24.7575 l 179.1788,46.7606 l 124.5978,150.6602 l 1.4355,79.6922 l 32.9555,-82.1890 l 171.7705,-99.7652 l 179.6580,17.7874 l 30.7087,34.6502 l -44.1273,-110.6318 l 53.5115,-199.3110 l 124.6377,-100.9009 l 11.4412,7.2253 l -133.6262,-59.5137 l -103.4853,-180.5918 l 15.4917,-134.6829 l -8.3913,25.0195 l -158.4961,59.3768 l -196.6315,-53.9695 l -65.0523,-84.8280 l 16.2521,57.9693 l -78.4782,170.1227 l -168.7259,95.3023 l -74.2033,-12.3338 l 78.6072,49.5205 l 68.4832,187.9588 l -48.4764,171.3413 l -35.9769,20.9680 l 120.5763,-24.5601 l 187.3418,87.9695 l 75.8096,137.7360 l -8.8850,5.1502 l 84.1085,-123.8308 l 195.7573,-70.0536 l 126.2484,38.0310 l -26.4001,-16.2092 l -31.0153,-169.2169 l 87.2518,-183.1364 l 91.3584,-46.9446 l -64.5522,5.6214 l -155.3538,-108.3771 l -63.5248,-181.1323 l 24.1316,-66.4549 l -65.7310,71.6214 l -198.3499,34.5863 l -157.8158,-76.7769 l -11.8003,-35.0517 l 2.8593,126.8985 l -119.8122,169.3572 l -145.8997,49.2725 l 1.2212,-8.5695 l 109.4112,106.9882 l 34.4959,204.6886 l -58.0896,114.1298 l 24.6470,-25.7056 l 174.7235,-0.7255 l 164.0025,117.4218 l 28.6108,94.2257 l 6.7997,-69.0258 l 135.4142,-135.2493 l 187.5725,-30.3530 l 56.9707,33.6112 l -61.2679,-80.8825 l 0.8347,-202.5281 l 101.8130,-139.6694 l 32.1336,-3.6776 l -129.1589,-20.2776 l -145.9211,-147.9821 l -22.2432,-149.0356 l 6.3287,7.1762 l -127.2711,90.6898 l -207.1128,-2.0180 l -98.9392,-75.0843 l 22.7841,33.2001 l -30.5110,174.6748 l -143.5259,139.9163 l -93.5644,10.7645 l 70.9700,20.5693 l 110.3786,158.6268 l -3.0962,187.9475 l -40.5489,46.3221 l 94.2771,-47.7285 l 200.2856,36.6251 l 117.6355,122.8433 l -3.0044,27.5743 l 44.0656,-127.0564 l 171.5420,-117.7839 l 147.2321,4.3391 l -12.2431,2.3253 l -68.1586,-144.1403 l 38.2901,-202.9777 l 88.5706,-81.3768 l -41.3341,17.5998 l -168.9175,-61.6542 l -111.7247,-164.7581 l 5.9375,-89.6439 l -35.1547,70.0605 l -177.1677,81.4861 l -182.3668,-35.7162 l -35.1015,-44.8496 l 31.3286,105.2528 l -71.6062,191.6316 l -139.2844,92.5631 l -21.7988,-7.9437 l 120.4449,67.6605 l 85.8572,189.7084 l -29.5837,140.7505 l 3.1732,-15.9990 l 156.8760,-42.4652 l 192.4524,73.1358 l 62.2008,98.2555 l -10.2378,-48.5107 l 91.6419,-157.4967 l 180.4862,-80.4036 l 82.8522,20.9199 l -66.0864,-49.9532 l -49.4670,-190.3375 l 66.4497,-171.1412 l 46.5462,-23.8946 l -113.2129,12.5292 l -176.7939,-104.6165 l -65.3839,-150.7279 l 10.9447,-15.2834 l -90.1897,109.3449 l -201.8788,51.1824 l -130.0109,-52.6795 l 18.0921,9.8078 l 14.3932,164.8860 l -105.4246,175.9207 l -104.0027,42.1961 l 54.2133,-0.9035 l 140.6574,119.4279 l 47.0231,190.2722 l -33.7098,73.6754 l 64.3168,-58.9652 l 197.6111,-15.3381 l 154.7681,94.3247 l 13.2544,45.7940 l 8.0870,-117.6534 l 134.5527,-156.2123 l 156.9511,-37.0770 l 8.5304,11.9261 l -93.9477,-110.7856 l -14.8941,-207.6526 l 72.9234,-115.5711 l -17.1453,18.2604 l -167.7302,-15.1638 l -153.9666,-134.1196 l -22.1425,-105.8332 l -10.0832,57.9738 l -144.0200,118.8402 l -193.8852,12.7084 l -62.6728,-43.9525 l 48.7508,77.5786 l -19.7969,198.6587 l -118.4877,133.9112 l -42.8591,3.6761 l 118.1871,29.8350 l 130.5246,160.4080 l 8.6323,157.9206 l -10.9231,2.0435 l 128.6190,-74.6140 l 206.8455,21.8183 l 98.1018,89.7424 l -16.3456,-24.6996 l 45.2322,-165.1416 l 158.3125,-127.3532 l 103.9179,-2.7844 l -59.3957,-22.3000 l -92.6690,-164.5169 l 21.3995,-191.3072 l 51.4222,-50.4512 l -89.0823,35.6371 l -193.3599,-54.7854 l -109.3732,-138.2315 l 4.4235,-38.1023 l -51.9512,114.5641 l -181.3084,100.5460 l -153.7884,-18.9855 l 3.6986,-8.0844 l 51.8652,142.9328 l -57.7528,199.4956 l -102.7116,78.3580 l 31.9552,-12.3035 l 157.0401,74.7924 l 96.9943,177.2542 l -15.1978,98.5659 l 35.2380,-58.1764 l 180.1423,-62.9315 l 182.7304,54.1844 l 37.6361,56.0266 l -19.9551,-98.2104 l 88.4659,-181.8101 l 153.0174,-82.0652 l 31.9596,10.7237 l -106.6869,-73.6220 l -67.2409,-196.5438 l 44.8716,-144.8820 l 3.6638,8.2653 l -153.0722,26.3682 l -185.8614,-91.7361 l -57.1472,-111.5652 l 6.2082,38.3927 l -102.8153,143.5400 l -190.3800,63.9221 l -90.2064,-31.2123 l 54.1242,48.3228 l 30.5544,190.2743 l -84.5933,168.5483 l -57.8058,24.8440 l 104.4132,-2.1643 l 164.3196,119.7085 l 52.9715,162.4907 l -15.0126,24.9188 l 94.0137,-94.6195 l 205.5929,-31.6901 l 131.6870,68.2122 l -11.2966,-1.9934 l 1.0850,-158.5137 l 122.6644,-166.4130 l 116.2013,-35.2974 l -43.5149,-1.7489 l -124.9500,-128.2999 l -29.2500,-197.3275 l 44.7771,-79.3667 l -60.9386,47.1718 l -194.4706,-3.4278 l -149.3380,-111.6725 l -12.6556,-56.9259 l -17.1623,107.2339 l -147.4552,141.4044 l -166.4898,23.1134 l -17.4947,-17.1945 l 78.5910,112.3057 l -4.9463,208.1422 l -88.3122,114.8255 l 8.4675,-12.5210 l 158.8878,29.6042 l 141.8147,149.5411 l 13.6239,116.6803 l 11.2653,-46.8717 l 150.3097,-101.7666 l 197.9470,5.8669 l 66.6473,55.5346 l -37.3841,-72.4547 l 37.9083,-192.4867 l 134.5997,-125.8376 l 53.6665,-1.5912 l -106.3325,-37.3571 l -113.7702,-170.7577 l 6.4884,-165.0475 l 17.2919,-10.2036 l -127.7229,58.9923 l -204.0975,-41.4691 l -95.0284,-104.6169 l 11.7700,15.2859 l -58.2312,153.9976 l -171.5115,112.9009 l -113.2165,-7.1009 l 48.0839,21.9392 l 74.6597,168.0090 l -40.2723,192.3051 l -63.2627,52.6937 l 82.2534,-24.9606 l 184.2874,71.7455 l 98.9175,152.7104 l -7.9113,48.4044 l 57.6824,-101.5039 l 188.8109,-82.2891 l 158.3849,34.8504 l 3.5371,15.4424 l -36.3657,-139.5674 l 76.6819,-193.5873 l 116.7288,-73.1060 l -21.9465,8.9874 l -143.8306,-85.9741 l -80.6470,-187.8915 l 26.1768,-106.1649 l -33.2858,46.8637 l -180.6944,44.4520 l -180.6793,-72.8492 l -38.1676,-67.8779 l 10.2317,89.7586 l -103.8037,170.0508 l -165.5190,69.5471 l -41.5928,-15.5131 l 92.6919,77.3582 l 47.9699,200.9828 l -61.0611,146.8995 l -11.8896,-2.0614 l 147.2485,-11.3897 l 176.9584,109.4323 l 49.9143,124.4172 l -4.2335,-27.9434 l 111.8430,-128.5643 l 198.1903,-46.1343 l 96.0014,43.0004 l -43.0319,-44.7582 l -12.0921,-187.8229 l 102.5582,-163.5461 l 69.4342,-23.7186 l -94.4624,-6.3507 l -150.1647,-132.9929 l -38.7588,-172.7321 l 20.9873,-33.7374 l -95.5925,79.9970 l -206.8368,11.9241 l -131.1460,-84.3116 l 6.2190,-6.9699 l -15.1435,150.3085 l -138.6521,154.7640 l -127.6219,26.3222 l 32.7919,2.3161 l 108.5637,134.8869 l 10.5118,202.1263 l -57.0855,83.2998 l 55.7711,-36.5300 l 189.0346,21.3771 l 141.5621,128.4733 l 9.9563,68.1150 l 24.2276,-95.9505 l 158.3080,-125.2154 l 174.2557,-7.6102 l 25.3717,24.2263 l -63.6782,-111.6126 l 24.6725,-206.1484 l 103.9228,-111.8120 l 1.0944,8.6508 l -148.4447,-42.3544 l -127.7439,-163.3941 l -3.1781,-126.4500 l -10.3769,36.0539 l -154.2291,84.3732 l -199.6350,-25.0442 l -68.7052,-68.0781 l 27.4273,65.7272 l -54.8543,184.1682 l -149.8119,115.5379 l -64.2205,-2.5742 l 93.9234,42.7533 l 95.9688,178.8649 l -22.8539,170.1942 l -25.2432,17.0300 l 124.6972,-44.1483 l 198.9139,60.6204 l 89.6896,119.3666 l -9.1748,-5.2723 l 69.3073,-141.5252 l 182.8649,-96.7990 l 121.1658,18.7221 l -37.3606,-19.5678 l -56.7002,-169.1019 l 59.3712,-190.8700 l 75.7658,-52.9050 l -74.0440,15.9230 l -173.2706,-87.2180 l -86.4078,-165.9610 l 13.4144,-58.1496 l -61.2192,88.2143 l -193.9326,63.3458 l -160.8425,-51.6386 l -9.2220,-24.1683 l 21.9633,134.2069 l -94.7385,185.3511 l -130.2808,65.6433 l 11.6358,-7.7204 l 129.5992,95.0437 l 62.9590,196.4518 l -38.6630,112.1758 l 29.4273,-36.4328 l 178.8763,-26.3932 l 176.1953,91.3607 l 36.5993,80.0810 l -2.3414,-80.1819 l 117.3666,-156.5979 l 176.4956,-55.1951 l 50.3793,22.2092 l -78.8011,-78.8812 l -28.3910,-202.9607 l 77.8335,-146.6713 l 21.2397,-2.4081 l -139.6119,-2.1950 l -165.8922,-125.9045 l -40.5758,-136.4778 l 4.3325,17.4971 l -118.6182,112.9001 l -203.7437,27.3464 l -100.0075,-56.0351 l 33.0972,39.4340 l -5.5860,183.0879 l -119.9964,156.1704 l -81.0983,20.4715 l 83.6700,12.8774 l 134.6095,144.2571 l 22.9743,181.1905 l -28.7195,41.4396 l 94.9897,-65.8132 l 205.5997,7.7629 l 128.3060,100.6429 l -3.0216,16.7899 l 27.5413,-140.5172 l 153.0946,-141.1695 l 137.9464,-15.3941 l -22.3779,-0.8295 l -91.8418,-139.1336 l 8.8626,-204.5438 l 70.3545,-85.2852 l -49.0306,27.2978 l -181.4574,-38.1952 l -131.5289,-144.3885 l -5.1601,-79.0253 l -29.1930,84.1301 l -166.9435,107.9547 l -180.0252,-9.1672 l -31.8877,-32.8289 l 49.5318,108.8201 l -43.9342,201.7146 l -119.4125,106.5008 l -11.2271,-6.7664 l 136.6817,53.2136 l 111.9930,175.4189 l -9.0249,134.8471 l 7.4994,-25.8456 l 155.7759,-67.0081 l 198.8761,44.4797 l 68.7018,81.2773 l -19.1031,-57.6490 l 70.3475,-173.9040 l 163.8036,-103.1509 l 74.1894,8.7658 l -81.2969,-45.9843 l -77.4521,-184.6112 l 40.1682,-173.1805 l 34.5454,-22.2812 l -119.7038,30.3843 l -191.3913,-78.9327 l -82.1078,-133.6485 l 8.6281,-5.0137 l -78.3044,128.0328 l -192.1523,79.3230 l -127.4999,-31.8665 l 27.5353,15.3155 l 39.1352,167.8465 l -78.3455,186.9825 l -88.6079,50.9884 l 64.7379,-8.7064 l 160.5520,100.9495 l 72.0301,177.6877 l -20.8293,67.0186 l 62.5737,-75.0349 l 196.6072,-44.0624 l 161.0282,69.0305 l 13.1520,33.9968 l -8.9323,-127.0570 l 111.6017,-174.9343 l 143.0325,-56.0440 l -1.3570,8.5205 l -114.6747,-101.8939 l -44.2359,-202.7596 l 52.4061,-116.3680 l -23.8374,27.1702 l -174.7909,9.0886 l -169.3129,-109.3696 l -32.8845,-92.3018 l -3.5783,69.7888 l -128.9408,141.7299 l -185.6836,39.2377 l -58.0194,-30.6617 l 65.3488,78.2543 l 8.8567,202.4651 l -94.8530,144.1145 l -31.4212,4.9818 l 130.4079,14.1459 l 152.8575,140.8581 l 29.2558,147.4274 l -6.4729,-7.3868 l 123.0847,-96.8893 l 206.9134,-7.8872 l 102.0349,70.0346 l -24.5769,-32.5666 l 22.1658,-176.2219 l 136.5679,-146.5083 l 92.4608,-15.1069 l -72.3619,-17.3267 l -117.9620,-153.3322 l -5.8838,-187.6407 l 38.0153,-47.7516 l -92.3186,52.3894 l -201.9232,-27.0208 l -123.1363,-116.8623 l 1.8202,-27.1527 l -38.0781,129.4191 l -165.7306,125.8669 l -146.8781,2.6838 l 12.5974,-2.6284 l 75.1312,141.0365 l -28.5292,204.5055 l -84.2773,85.1783 l 40.9696,-19.6969 l 171.9381,53.5948 l 119.3763,159.0962 l -1.6778,89.3244 l 32.0194,-72.1087 l 173.2419,-89.9530 l 183.6165,26.9222 l 36.8013,42.7696 l -36.4527,-104.0891 l 62.3916,-194.9354 l 134.4369,-98.9136 l 21.6027,6.9347 l -123.9057,-62.0259 l -94.8363,-185.3937 l 22.7717,-141.6043 l -2.7632,16.5551 l -154.9994,50.0150 l -195.6493,-63.8221 l -66.5406,-94.8073 l 12.5925,48.5036 l -84.1339,161.9349 l -176.2778,88.8619 l -83.2533,-16.8792 l 68.7915,47.0621 l 58.5652,187.9288 l -58.1108,173.8719 l -44.9323,25.7537 l 112.9473,-17.9733 l 181.6750,96.0845 l 72.3568,147.1262 l -10.1468,15.2380 l 85.1149,-113.8480 l 199.1967,-60.7778 l 131.9873,46.2830 l -18.8933,-9.3577 l -22.2973,-164.3441 l 96.8450,-180.6751 l 101.4537,-46.8977 l -54.6427,3.4472 l -146.4086,-112.7255 l -56.0125,-187.6255 l 30.0045,-74.7110 l -61.8091,62.2988 l -196.8204,24.7905 l -158.8581,-86.6890 l -15.1664,-44.6342 l -2.4880,118.3620 l -126.9761,162.5298 l -154.6630,44.4321 l -8.5569,-11.3542 l 99.3977,106.4679 l 24.8063,206.6864 l -67.1234,118.5513 l 16.7327,-19.3317 l 168.5892,7.1482 l 160.1178,126.5349 l 27.0280,104.2019 l 7.4390,-58.9043 l 138.3567,-125.7536 l 192.8563,-21.9407 l 64.2391,40.6757 l -52.6551,-75.5904 l 10.2832,-199.5356 l 111.7743,-139.1975 l 42.1195,-5.5447 l -119.9145,-24.2629 l -138.0902,-154.0306 l -16.1253,-156.9680 l 10.5713,-2.0634 l -125.2384,80.8776 l -207.6230,-11.8991 l -101.9386,-84.6909 l 17.6917,24.4086 l -37.3600,167.4222 l -151.9493,134.6965 l -103.1887,7.6807 l 60.8731,19.6599 l 100.5517,160.0972 l -12.2157,191.8990 l -48.6411,52.4322 l 87.7396,-40.0252 l 195.8999,45.5096 l 115.6582,132.6239 l -2.6808,37.7301 l 46.5983,-117.3197 l 176.3368,-109.1295 l 154.1485,11.5946 l -3.7581,7.9266 l -58.7744,-140.6443 l 48.1360,-201.9882 l 98.5276,-82.8823 l -31.8713,13.9073 l -160.7157,-67.3218 l -105.2888,-172.2976 l 10.4522,-98.6916 l -32.7193,60.2237 l -177.1338,71.5544 l -184.8934,-45.3336 l -39.9096,-53.7812 l 24.7131,97.6236 l -79.7229,185.9544 l -148.6579,89.1240 l -31.8870,-9.1718 l 110.4427,68.6838 l 76.5782,193.1396 l -37.8103,146.4892 l -3.6557,-8.4672 l 151.9999,-33.7256 l 189.9854,82.7204 l 62.1753,108.3316 l -8.0309,-38.5981 l 95.9989,-148.5360 l 186.9677,-72.8987 l 91.1116,26.7619 l -56.7391,-46.0501 l -39.6593,-188.8017 l 76.3438,-172.1829 l 56.1093,-27.2872 l -104.6710,7.1540 l -169.9564,-111.7796 l -60.5605,-159.4770 l 13.6964,-25.0680 l -89.6821,99.3096 l -203.8678,41.4917 l -134.4369,-61.6878 l 11.6897,1.9112 l 6.4993,158.7444 l -114.5277,172.0323 l -113.9637,40.6380 l 44.0830,-0.2329 l 131.1454,122.3755 l 38.6208,195.5457 l -40.7442,80.9528 l 59.0384,-50.3249 l 194.6102,-5.8797 l 154.2993,104.2677 l 15.1511,55.7655 l 12.0984,-108.3986 l 140.5981,-148.3721 l 164.8725,-30.9789 l 17.7824,16.1374 l -84.1122,-108.7611 l -5.0143,-208.1540 l 82.5053,-118.5797 l -8.3659,13.1368 l -160.4670,-22.0306 l -148.7455,-142.5319 l -19.0862,-115.4471 l -9.2029,47.8625 l -145.4921,108.9969 l -197.8283,3.6013 l -68.7974,-52.0165 l 41.0182,71.0495 l -28.6889,194.2630 l -128.2503,131.9407 l -53.0060,4.0316 l 108.4357,32.3910 l 121.8623,165.1976 l 1.3989,164.8298 l -16.4959,10.5462 l 125.1268,-65.2059 l 205.8477,31.6606 l 99.6212,99.6764 l -12.6204,-15.2431 l 50.9148,-156.9263 l 165.8403,-120.9186 l 112.9603,1.7010 l -49.5397,-19.8904 l -82.7214,-164.4815 l 31.0025,-193.8278 l 60.3285,-55.2787 l -81.4560,28.9916 l -187.6718,-62.9071 l -105.9446,-147.5882 l 5.6185,-48.1876 l -52.9945,104.5435 l -184.7328,91.2607 l -159.5241,-27.1885 l -3.8558,-14.8885 l 43.1019,138.0558 l -67.3317,197.0213 l -112.7674,78.3507 l 22.0429,-10.0634 l 148.0637,79.1612 l 89.4934,183.7242 l -21.0096,106.8254 l 31.3565,-48.8057 l 178.6019,-53.1090 l 183.7692,64.0626 l 41.0525,65.5681 l -14.5504,-89.6660 l 95.6312,-174.9613 l 161.7515,-77.2556 l 41.7473,13.4422 l -96.6302,-73.1303 l -57.5460,-198.5249 l 53.8556,-149.3094 l 11.5400,1.8361 l -146.9255,18.4518 l -181.9673,-100.8316 l -55.6112,-121.5094 l 5.5050,28.2566 l -105.7713,134.0108 l -195.6428,55.5266 l -97.4894,-38.2168 l 45.4572,43.0614 l 21.0830,187.2661 l -94.5196,168.0797 l -67.7603,26.7683 l 95.1506,1.8754 l 156.4684,125.7536 l 46.8903,170.3998 l -19.1917,34.1798 l 92.0007,-84.7603 l 206.0856,-21.8083 l 134.7018,77.7702 l -6.1430,6.7707 l 7.9726,-151.2415 l 131.0675,-161.1881 l 125.8025,-32.2661 l -33.3921,-0.8995 l -115.0888,-129.7767 l -20.1522,-201.2612 l 52.8123,-85.5024 l -54.4212,39.4102 l -190.0656,-12.3306 l -147.3711,-121.4182 l -13.0416,-67.0611 l -19.7444,97.4699 l -152.2421,132.7318 l -173.3900,15.8994 l -26.0123,-22.7371 l 69.1581,108.8203 l -14.7882,207.1355 l -98.2233,116.3555 l -0.9795,-8.7636 l 150.6600,35.3050 l 135.3785,157.0589 l 9.1659,125.7146 l 8.8839,-36.9989 l 150.2754,-91.8012 l 200.4602,15.4583 l 71.4912,64.4145 l -30.7082,-64.8346 l 46.0382,-186.7876 l 143.9400,-122.4161 l 63.7457,-0.4284 l -96.2949,-38.4233 l -104.4760,-174.1771 l 14.6700,-170.7777 l 24.0690,-17.7781 l -122.8480,50.2038 l -201.6148,-51.0453 l -95.0361,-114.6518 l 9.4965,5.3771 l -62.6151,145.0059 l -177.9710,105.4009 l -121.4731,-12.8840 l 38.6916,18.0822 l 64.8200,166.4662 l -50.1372,193.3388 l -72.7810,56.1312 l 73.7095,-19.5251 l 177.4266,78.9164 l 94.1185,161.4295 l -10.5968,58.1920 l 57.2099,-91.4266 l 190.7853,-72.5870 l 162.8110,43.8119 l 9.9910,23.2957 l -28.4246,-133.4181 l 85.7726,-189.6856 l 126.6548,-71.5889 l -11.8079,8.2508 l -134.2841,-88.9417 l -72.2550,-193.1438 l 33.1521,-113.4504 l -28.0444,38.1713 l -177.6807,34.9647 l -180.2084,-82.7608 l -40.1171,-77.8132 l 6.1620,80.4911 l -109.8515,162.1872 l -173.4149,63.4796 l -50.8597,-19.6596 l 82.8094,75.3600 l 38.0829,201.4674 l -70.5961,149.9173 l -20.6357,3.1206 l 139.9693,-4.4789 l 171.7274,117.8289 l 46.9054,134.0037 l -5.0506,-17.8121 l 113.3278,-118.6842 l 202.1143,-37.0425 l 102.1449,51.0071 l -35.2418,-38.2558 l -3.1754,-183.4096 l 112.2886,-161.5801 l 79.5550,-24.1329 l -84.6881,-8.9611 l -141.4800,-137.7797 l -31.5612,-179.6216 l 26.4989,-42.2667 l -92.1171,70.5387 l -205.8213,2.0793 l -132.6835,-94.2003 l 2.4303,-16.4043 l -20.8654,142.0698 l -146.1617,148.3236 l -136.6459,21.8893 l 22.9049,-0.0353 l 98.5789,134.8565 l 0.9287,204.6309 l -65.9384,88.1567 l 48.1606,-29.8236 l 183.3249,29.5185 l 138.1447,137.7981 l 8.8243,78.1851 l 25.3195,-85.8977 l 161.7248,-115.9098 l 179.9785,0.5527 l 32.9634,30.9748 l -54.8634,-106.7429 l 34.2492,-203.6566 l 113.9366,-111.8314 l 10.9964,6.3443 l -139.4386,-46.7566 l -120.2419,-169.8443 l 2.5780,-134.7009 l -6.5469,26.6424 l -152.6866,74.5143 l -200.6619,-34.8986 l -72.1607,-77.5719 l 21.9603,57.1870 l -62.0339,177.2953 l -158.5161,110.7462 l -74.0046,-5.2276 l 83.8267,42.3031 l 86.2567,180.8342 l -31.7950,174.6165 l -33.0714,23.5061 l 118.5482,-36.1809 l 195.0035,69.7093 l 88.1883,129.2737 l -8.4046,4.8657 l 72.2898,-131.9614 l 188.1074,-88.4072 l 128.4507,25.6694 l -28.6444,-14.3493 l -47.1946,-166.0848 l 69.2706,-190.3946 l 85.6801,-54.8768 l -64.7745,11.8220 l -165.3938,-93.2717 l -80.3508,-173.8433 l 17.5285,-67.4191 l -59.2391,78.3090 l -194.4104,53.4506 l -163.8604,-61.1524 l -14.4304,-32.8936 l 15.0270,126.9231 l -103.1310,180.1122 l -139.8513,62.6538 l 1.4991,-8.5043 l 119.6999,96.5396 l 53.8699,200.3660 l -46.6416,118.3238 l 22.9430,-28.6154 l 174.4562,-17.4597 l 174.2274,101.0776 l 37.0397,90.1851 l 0.2992,-70.4000 l 122.1562,-147.8995 l 183.3735,-48.0109 l 58.9170,27.6892 l -69.3175,-75.4193 l -18.5400,-201.9369 l 87.7007,-148.2130 l 30.6585,-6.2266 l -131.3641,-7.9407 l -159.4453,-133.4082 l -36.1653,-145.4894 l 6.6523,7.5988 l -118.5950,102.8948 l -206.2392,17.7685 l -104.8741,-64.8609 l 26.3607,31.8362 l -13.7421,177.3687 l -129.3072,152.7540 l -91.1565,19.3684 l 73.6045,13.9974 l 125.2905,147.6738 l 14.8272,186.9042 l -35.4382,49.0454 l 90.1284,-56.9714 l 203.0987,17.3435 l 128.3338,110.6360 l -0.6830,26.6819 l 31.9648,-131.4981 l 159.5374,-133.6625 l 146.1892,-9.6628 l -12.9496,2.9715 l -81.9620,-137.5940 l 18.7096,-205.5628 l 79.8232,-88.7555 l -40.4975,21.7991 l -174.5725,-45.3869 l -126.7414,-153.0787 l -2.5377,-88.8031 l -28.7677,74.0159 l -168.9101,98.2301 l -184.4416,-18.0905 l -38.3831,-40.6303 l 41.5367,102.6744 l -53.0245,197.7947 l -129.3003,105.0119 l -21.3610,-5.9627 l 127.1015,56.2142 l 103.5984,180.6529 l -15.9459,142.1284 l 2.3064,-17.1076 l 152.7577,-57.4819 l 198.3945,54.3697 l 70.6930,91.1692 l -14.9698,-48.3807 l 76.4102,-166.0137 l 171.6725,-97.1011 l 83.4581,12.8482 l -71.3700,-44.0254 l -67.5457,-185.0837 l 49.6627,-176.1959 l 43.2478,-27.5136 l -112.4182,23.4206 l -186.1430,-87.3243 l -79.1345,-143.2022 l 9.3784,-15.1525 l -79.8146,118.1144 l -196.0574,70.2334 l -133.6494,-39.8181 l 19.6920,8.8523 l 30.1823,163.4217 l -88.0514,185.0104 l -98.6933,51.4522 l 54.9513,-6.0341 l 151.8391,105.7451 l 64.8560,184.5535 l -26.2776,75.5613 l 59.1285,-65.5265 l 195.5761,-34.2021 l 162.5713,78.8777 l 16.9983,43.3972 l -3.1605,-118.8025 l 119.1022,-168.4788 l 152.0302,-51.6530 l 8.5494,10.8075 l -104.6484,-101.8810 l -34.6599,-205.2459 l 61.2052,-121.2412 l -16.2556,20.4046 l -169.0635,0.9149 l -165.8948,-118.6681 l -31.8081,-102.3458 l -4.7283,59.7130 l -132.3603,132.3961 l -191.3871,31.1034 l -65.6360,-37.3501 l 56.4799,73.4047 l -0.7310,199.9553 l -104.8262,144.1476 l -41.3001,7.3512 l 121.3776,18.5934 l 145.3433,147.2956 l 23.5468,155.6599 l -10.2432,2.0554 l 121.5512,-86.9875 l 207.9237,1.9555 l 105.5166,79.4779 l -19.0469,-24.0439 l 29.3727,-169.3259 l 145.2452,-141.7218 l 102.2294,-12.5135 l -62.2323,-16.9289 l -108.2228,-155.2984 l 3.0243,-192.0492 l 45.7886,-54.2632 l -86.1794,44.3658 l -197.9934,-36.1158 "/></g></svg>